<?xml version="1.0" encoding="utf-8"?>
<!-- Generator: Adobe Illustrator 23.0.5, SVG Export Plug-In . SVG Version: 6.00 Build 0)  -->
<svg version="1.1" xmlns="http://www.w3.org/2000/svg" xmlns:xlink="http://www.w3.org/1999/xlink" x="0px" y="0px"
	 viewBox="0 0 750 500" style="enable-background:new 0 0 750 500;" xml:space="preserve">
<style type="text/css">
	.st0{fill:#92E3A9;}
	.st1{opacity:0.7;fill:#FFFFFF;}
	.st2{fill:none;stroke:#263238;stroke-linecap:round;stroke-linejoin:round;stroke-miterlimit:10;}
	.st3{fill:#263238;stroke:#263238;stroke-width:0.9136;stroke-linecap:round;stroke-linejoin:round;stroke-miterlimit:10;}
	.st4{fill:#FFFFFF;stroke:#263238;stroke-linecap:round;stroke-linejoin:round;stroke-miterlimit:10;}
	.st5{fill:#92E3A9;stroke:#263238;stroke-linecap:round;stroke-linejoin:round;stroke-miterlimit:10;}
	.st6{fill:#263238;stroke:#263238;stroke-linecap:round;stroke-linejoin:round;stroke-miterlimit:10;}
	.st7{fill:#263238;}
	.st8{fill:#707070;stroke:#263238;stroke-linecap:round;stroke-linejoin:round;stroke-miterlimit:10;}
</style>
<g id="Background_Simple">
	<g>
		<path class="st0" d="M646.56,144.98c-19.45-16.15-42.77-28.18-68.68-37.32c-6.67-2.36-13.41-4.53-20.18-6.6
			c-35.52-10.87-72.31-17.42-109.22-21.23c-144.08-14.87-178.48,51.13-213.8,80.87c-35.32,29.75-65.07,34.39-131.07,50.2
			s-90.17,98.53-54.84,164.53c35.32,66,86.45,81.8,156.17,79.01c53.81-2.15,101.22-33.69,154.59-35.45
			c99.66-3.28,259.69,101.29,328.79-20.41c24.4-42.97,23.8-97.73,16.09-145.12C697.78,212.68,678.84,171.77,646.56,144.98z"/>
		<path class="st1" d="M646.56,144.98c-19.45-16.15-42.77-28.18-68.68-37.32c-6.67-2.36-13.41-4.53-20.18-6.6
			c-35.52-10.87-72.31-17.42-109.22-21.23c-144.08-14.87-178.48,51.13-213.8,80.87c-35.32,29.75-65.07,34.39-131.07,50.2
			s-90.17,98.53-54.84,164.53c35.32,66,86.45,81.8,156.17,79.01c53.81-2.15,101.22-33.69,154.59-35.45
			c99.66-3.28,259.69,101.29,328.79-20.41c24.4-42.97,23.8-97.73,16.09-145.12C697.78,212.68,678.84,171.77,646.56,144.98z"/>
	</g>
</g>
<g id="Plants">
	<g>
		<path class="st0" d="M62.77,340.2c2.58,1.13,8.9,0.99,8.91,0.99c0.07,0-1.36-4.14-1.48-4.39c-1.39-2.9-5.77-7.69-9.34-7.21
			c-2.57,0.35-4,2.92-3.42,5.34C58.04,337.4,60.57,339.24,62.77,340.2z"/>
		<path class="st0" d="M64.96,358.51c2.68,0.39,8.32-1.24,8.77-1.38c0.89,3.16,2.06,6.33,3.42,9.47c0.78,1.8,1.61,3.58,2.48,5.36
			c-0.51-0.75-0.98-1.42-1.06-1.51c-2.1-2.43-7.6-5.89-10.91-4.49c-2.39,1.01-3.09,3.87-1.89,6.05c1.22,2.23,4.16,3.33,6.53,3.68
			c2.41,0.35,7.25-0.95,8.52-1.31c0.34,0.68,0.67,1.36,1.01,2.04c1.63,3.25,3.28,6.49,4.79,9.72c0.53,1.14,1.02,2.28,1.51,3.41
			c-0.46-0.67-0.85-1.23-0.92-1.31c-2.1-2.43-7.6-5.89-10.91-4.49c-2.39,1.01-3.09,3.87-1.89,6.05c1.22,2.23,4.16,3.33,6.53,3.68
			c2.3,0.34,6.78-0.82,8.29-1.24c0.47,1.18,0.93,2.36,1.33,3.53c0.25,0.8,0.55,1.56,0.76,2.37c0.23,0.81,0.45,1.61,0.67,2.4
			c0.37,1.54,0.76,3.12,1.08,4.63c0.23,1.05,0.43,2.05,0.64,3.06c-0.52-1.14-1.58-3.34-1.69-3.52c-1.71-2.72-6.62-6.98-10.11-6.09
			c-2.51,0.64-3.64,3.36-2.78,5.7c0.87,2.39,3.6,3.92,5.9,4.62c2.53,0.77,8.13,0.07,8.83-0.03c0.34,1.67,0.65,3.3,0.91,4.85
			c0.55,3.13,0.98,5.96,1.31,8.41h2.35c-0.4-2.54-0.91-5.51-1.56-8.8c-0.33-1.7-0.72-3.51-1.14-5.36c0.42-0.17,2.81-1.13,4.92-2.32
			c1.84,2,6.57,4.33,7.18,4.63c-0.64,1.58-1.28,3.11-1.91,4.55c-1.19,2.73-2.32,5.18-3.34,7.31h2.53c0.86-1.94,1.8-4.1,2.77-6.48
			c0.66-1.6,1.33-3.33,2.01-5.11c0.68,0.14,6.22,1.27,8.8,0.68c2.34-0.53,5.18-1.85,6.23-4.17c1.03-2.27,0.11-5.06-2.35-5.89
			c-3.41-1.15-8.62,2.73-10.53,5.32c-0.11,0.15-1.15,1.95-1.79,3.09c0.27-0.73,0.54-1.43,0.81-2.18c0.54-1.49,1.04-2.98,1.59-4.59
			c0.24-0.79,0.47-1.58,0.71-2.38c0.25-0.79,0.42-1.66,0.64-2.49c0.46-1.95,0.84-3.95,1.17-5.97c1.3,0.47,5.95,2.09,8.35,1.92
			c2.4-0.17,5.4-1.05,6.79-3.18c1.36-2.09,0.87-4.99-1.43-6.18c-3.2-1.65-8.94,1.39-11.22,3.66c-0.14,0.14-1.59,1.95-2.37,2.96
			c0.19-1.22,0.39-2.43,0.54-3.67c0.44-3.57,0.78-7.2,1.13-10.82c0.11-1.11,0.23-2.21,0.34-3.32c0.46,0.17,5.94,2.21,8.64,2.02
			c2.4-0.17,5.4-1.05,6.79-3.18c1.36-2.09,0.87-4.99-1.43-6.18c-3.2-1.65-8.94,1.39-11.22,3.66c-0.17,0.17-2.26,2.78-2.76,3.47
			c0.26-2.43,0.54-4.85,0.91-7.23c0.51-3.28,1.19-6.47,2.08-9.51c0.21,0.08,5.93,2.24,8.69,2.04c2.4-0.17,5.4-1.05,6.79-3.18
			c1.36-2.09,0.87-4.99-1.43-6.18c-3.2-1.65-8.94,1.39-11.22,3.66c-0.18,0.18-2.42,2.99-2.79,3.53c0.05-0.18,0.09-0.37,0.14-0.55
			c0.99-3.23,2.35-6.24,3.77-9c0.82-1.6,1.69-3.09,2.57-4.52c1.02,0.51,5.72,2.79,8.22,2.89c2.4,0.1,5.48-0.45,7.1-2.41
			c1.58-1.92,1.42-4.86-0.74-6.3c-3-1.99-9.04,0.4-11.55,2.41c-0.14,0.11-1.4,1.37-2.31,2.3c0.41-0.64,0.82-1.3,1.22-1.91
			c1.51-2.27,3.03-4.25,4.39-6c0.78-0.99,1.51-1.86,2.19-2.68c1.26-0.02,6.36-0.18,8.59-1.22c2.17-1.02,4.66-2.93,5.19-5.41
			c0.51-2.44-0.98-4.97-3.56-5.25c-3.58-0.39-7.83,4.52-9.14,7.46c-0.11,0.25-1.42,4.43-1.36,4.43c0,0,0.06,0,0.08,0
			c-0.68,0.77-1.4,1.6-2.16,2.53c-1.4,1.72-2.97,3.68-4.53,5.92c-1.57,2.24-3.2,4.72-4.69,7.48c-1.5,2.77-2.93,5.76-4.01,9.03
			c-0.01,0.04-0.02,0.08-0.03,0.11c0.02-1.05-0.03-4.01-0.06-4.23c-0.41-3.19-3.09-9.11-6.63-9.76c-2.55-0.47-4.71,1.53-4.91,4.01
			c-0.21,2.53,1.63,5.07,3.42,6.67c2.02,1.8,7.63,3.55,8.07,3.69c-1,3.12-1.77,6.41-2.37,9.78c-0.34,1.93-0.63,3.88-0.89,5.84
			c-0.01-0.91-0.03-1.73-0.05-1.84c-0.41-3.19-3.09-9.11-6.63-9.76c-2.55-0.47-4.71,1.53-4.92,4.01c-0.21,2.53,1.63,5.07,3.42,6.67
			c1.82,1.62,6.57,3.21,7.83,3.61c-0.09,0.75-0.19,1.5-0.28,2.26c-0.43,3.61-0.85,7.22-1.36,10.75c-0.18,1.24-0.41,2.46-0.62,3.68
			c-0.01-0.81-0.03-1.49-0.04-1.6c-0.41-3.19-3.09-9.11-6.63-9.76c-2.55-0.47-4.71,1.53-4.91,4.01c-0.21,2.53,1.63,5.07,3.42,6.67
			c1.73,1.55,6.11,3.05,7.6,3.54c-0.26,1.24-0.52,2.49-0.83,3.68c-0.23,0.81-0.4,1.6-0.67,2.4c-0.26,0.8-0.51,1.59-0.76,2.37
			c-0.54,1.49-1.09,3.02-1.65,4.46c-0.38,1-0.77,1.95-1.16,2.91c0.19-1.23,0.53-3.66,0.53-3.87c0.05-2.14-0.71-5.61-2.22-8.05
			c0.01-0.32-0.01-0.63-0.06-0.94c-0.39-2.46-2.7-4.28-5.21-3.61c-3.48,0.93-5.69,7.03-5.85,10.25c-0.01,0.19,0.11,2.26,0.21,3.56
			c-0.18-0.76-0.34-1.49-0.53-2.27c-0.36-1.54-0.77-3.06-1.21-4.71c-0.24-0.79-0.48-1.58-0.72-2.38c-0.22-0.8-0.56-1.62-0.84-2.43
			c-0.69-1.88-1.48-3.76-2.31-5.62c1.35-0.32,6.11-1.54,8.03-3.01c1.91-1.46,3.93-3.85,3.91-6.4c-0.02-2.49-2.02-4.64-4.6-4.36
			c-3.58,0.39-6.69,6.09-7.34,9.24c-0.04,0.2-0.25,2.51-0.34,3.78c-0.51-1.12-1.02-2.24-1.57-3.36c-1.6-3.22-3.32-6.43-5.02-9.65
			c-0.52-0.98-1.03-1.97-1.54-2.96c0.48-0.11,6.18-1.43,8.32-3.08c1.91-1.46,3.93-3.85,3.91-6.4c-0.02-2.49-2.02-4.64-4.6-4.36
			c-3.58,0.39-6.69,6.09-7.34,9.24c-0.05,0.24-0.35,3.56-0.38,4.41c-1.13-2.17-2.23-4.34-3.23-6.53c-1.39-3.02-2.58-6.05-3.51-9.08
			c0.22-0.05,6.18-1.4,8.37-3.09c1.91-1.46,3.93-3.85,3.91-6.4c-0.02-2.49-2.02-4.64-4.6-4.36c-3.58,0.39-6.69,6.09-7.34,9.24
			c-0.05,0.25-0.37,3.83-0.38,4.48c-0.06-0.18-0.13-0.36-0.19-0.54c-0.96-3.24-1.48-6.51-1.82-9.58c-0.2-1.79-0.29-3.51-0.34-5.18
			c1.13-0.14,6.31-0.83,8.46-2.13c2.05-1.24,4.33-3.4,4.59-5.93c0.26-2.48-1.5-4.84-4.1-4.84c-3.6-0.01-7.31,5.32-8.31,8.38
			c-0.05,0.17-0.41,1.92-0.66,3.2c-0.01-0.76-0.04-1.54-0.03-2.26c0-2.72,0.18-5.22,0.35-7.42c0.11-1.25,0.23-2.39,0.35-3.44
			c1.04-0.72,5.21-3.66,6.49-5.76c1.25-2.05,2.27-5.01,1.34-7.37c-0.91-2.31-3.56-3.6-5.87-2.41c-3.2,1.65-4.04,8.09-3.51,11.26
			c0.05,0.27,1.25,4.48,1.31,4.44c0,0,0.05-0.03,0.06-0.04c-0.14,1.02-0.28,2.11-0.41,3.3c-0.22,2.21-0.45,4.7-0.51,7.44
			c-0.07,2.73-0.07,5.7,0.21,8.83c0.28,3.14,0.73,6.42,1.64,9.74c0.01,0.04,0.03,0.08,0.04,0.11c-0.57-0.89-2.23-3.33-2.38-3.5
			c-2.1-2.43-7.6-5.89-10.91-4.49c-2.39,1.01-3.09,3.87-1.89,6.05C59.65,357.06,62.58,358.16,64.96,358.51z"/>
		<path class="st0" d="M126.71,341.59c0.06,0.03,1.15-4.2,1.19-4.48c0.44-3.18-0.57-9.6-3.81-11.17c-2.34-1.13-4.95,0.23-5.8,2.57
			c-0.87,2.39,0.23,5.32,1.54,7.34C121.35,338.22,126.7,341.59,126.71,341.59z"/>
	</g>
	<g>
		<path class="st0" d="M166.38,368.28c1.7,0.74,5.85,0.65,5.86,0.65c0.04,0-0.89-2.72-0.97-2.89c-0.91-1.91-3.8-5.06-6.14-4.74
			c-1.69,0.23-2.63,1.92-2.25,3.51C163.26,366.44,164.93,367.65,166.38,368.28z"/>
		<path class="st0" d="M167.81,380.32c1.76,0.26,5.47-0.82,5.77-0.91c0.59,2.08,1.35,4.16,2.25,6.22c0.51,1.18,1.06,2.36,1.63,3.52
			c-0.34-0.5-0.64-0.94-0.69-0.99c-1.38-1.6-5-3.88-7.18-2.95c-1.57,0.67-2.03,2.55-1.24,3.98c0.81,1.46,2.73,2.19,4.3,2.42
			c1.59,0.23,4.77-0.62,5.6-0.86c0.22,0.45,0.44,0.89,0.66,1.34c1.07,2.14,2.16,4.27,3.15,6.39c0.35,0.75,0.67,1.5,0.99,2.24
			c-0.3-0.44-0.56-0.81-0.6-0.86c-1.38-1.6-5-3.88-7.18-2.95c-1.57,0.67-2.03,2.55-1.24,3.98c0.81,1.46,2.73,2.19,4.3,2.42
			c1.51,0.22,4.46-0.54,5.45-0.82c0.31,0.78,0.61,1.55,0.88,2.32c0.17,0.53,0.36,1.02,0.5,1.56c0.15,0.53,0.29,1.06,0.44,1.58
			c0.24,1.01,0.5,2.05,0.71,3.05c0.15,0.69,0.29,1.35,0.42,2.01c-0.34-0.75-1.04-2.2-1.11-2.31c-1.12-1.79-4.35-4.59-6.65-4
			c-1.65,0.42-2.39,2.21-1.83,3.75c0.57,1.57,2.37,2.58,3.88,3.04c1.66,0.51,5.34,0.04,5.8-0.02c0.22,1.1,0.42,2.17,0.6,3.19
			c0.36,2.06,0.64,3.92,0.86,5.53h1.54c-0.26-1.67-0.6-3.62-1.03-5.79c-0.22-1.12-0.48-2.31-0.75-3.53
			c0.28-0.11,1.85-0.75,3.24-1.52c1.21,1.31,4.32,2.85,4.72,3.04c-0.42,1.04-0.84,2.05-1.26,2.99c-0.78,1.8-1.52,3.4-2.19,4.8h1.66
			c0.57-1.27,1.18-2.7,1.82-4.26c0.43-1.05,0.88-2.19,1.32-3.36c0.45,0.09,4.09,0.83,5.79,0.45c1.54-0.35,3.41-1.22,4.1-2.74
			c0.68-1.49,0.07-3.33-1.55-3.87c-2.24-0.75-5.67,1.79-6.93,3.5c-0.07,0.1-0.76,1.28-1.17,2.03c0.18-0.48,0.36-0.94,0.54-1.44
			c0.36-0.98,0.69-1.96,1.04-3.02c0.15-0.52,0.31-1.04,0.47-1.57c0.17-0.52,0.28-1.09,0.42-1.64c0.31-1.28,0.55-2.6,0.77-3.92
			c0.86,0.31,3.91,1.37,5.49,1.26c1.57-0.11,3.55-0.69,4.46-2.09c0.89-1.37,0.57-3.28-0.94-4.06c-2.1-1.09-5.88,0.92-7.38,2.41
			c-0.09,0.09-1.05,1.28-1.56,1.95c0.13-0.8,0.26-1.6,0.36-2.41c0.29-2.35,0.51-4.73,0.75-7.11c0.07-0.73,0.15-1.45,0.23-2.18
			c0.3,0.11,3.91,1.46,5.68,1.33c1.58-0.11,3.55-0.69,4.46-2.09c0.89-1.37,0.57-3.28-0.94-4.06c-2.1-1.09-5.88,0.92-7.38,2.41
			c-0.11,0.11-1.48,1.83-1.81,2.28c0.17-1.6,0.35-3.19,0.6-4.75c0.33-2.16,0.78-4.25,1.36-6.25c0.14,0.05,3.9,1.47,5.71,1.34
			c1.58-0.11,3.55-0.69,4.46-2.09c0.89-1.37,0.57-3.28-0.94-4.06c-2.1-1.09-5.88,0.92-7.38,2.41c-0.12,0.12-1.59,1.96-1.84,2.32
			c0.04-0.12,0.06-0.25,0.09-0.36c0.65-2.13,1.55-4.11,2.48-5.92c0.54-1.05,1.11-2.03,1.69-2.97c0.67,0.34,3.76,1.84,5.41,1.9
			c1.58,0.06,3.61-0.3,4.67-1.59c1.04-1.27,0.93-3.2-0.49-4.14c-1.97-1.31-5.94,0.26-7.6,1.58c-0.09,0.07-0.92,0.9-1.52,1.51
			c0.27-0.42,0.54-0.86,0.8-1.25c0.99-1.49,1.99-2.8,2.88-3.94c0.51-0.65,0.99-1.23,1.44-1.76c0.83-0.01,4.18-0.12,5.65-0.8
			c1.43-0.67,3.06-1.92,3.41-3.56c0.34-1.6-0.65-3.27-2.34-3.45c-2.35-0.25-5.15,2.97-6.01,4.9c-0.07,0.17-0.94,2.91-0.89,2.91
			c0,0,0.04,0,0.05,0c-0.45,0.51-0.92,1.05-1.42,1.66c-0.92,1.13-1.95,2.42-2.98,3.89c-1.03,1.47-2.11,3.1-3.09,4.92
			c-0.99,1.82-1.93,3.79-2.64,5.94c-0.01,0.02-0.01,0.05-0.02,0.07c0.01-0.69-0.02-2.63-0.04-2.78c-0.27-2.1-2.03-5.99-4.36-6.42
			c-1.68-0.31-3.1,1-3.23,2.64c-0.14,1.67,1.07,3.33,2.25,4.39c1.33,1.19,5.02,2.34,5.31,2.43c-0.66,2.05-1.16,4.22-1.56,6.43
			c-0.23,1.27-0.41,2.55-0.59,3.84c-0.01-0.6-0.02-1.14-0.03-1.21c-0.27-2.1-2.03-5.99-4.36-6.42c-1.68-0.31-3.1,1-3.23,2.64
			c-0.14,1.67,1.07,3.33,2.25,4.39c1.2,1.07,4.32,2.11,5.15,2.38c-0.06,0.49-0.13,0.99-0.19,1.48c-0.28,2.38-0.56,4.75-0.9,7.07
			c-0.12,0.82-0.27,1.62-0.41,2.42c-0.01-0.53-0.02-0.98-0.03-1.05c-0.27-2.1-2.03-5.99-4.36-6.42c-1.68-0.31-3.1,1-3.23,2.64
			c-0.14,1.67,1.07,3.33,2.25,4.39c1.14,1.02,4.01,2.01,5,2.33c-0.17,0.82-0.34,1.63-0.55,2.42c-0.15,0.53-0.26,1.05-0.44,1.58
			c-0.17,0.52-0.34,1.04-0.5,1.56c-0.36,0.98-0.72,1.99-1.09,2.93c-0.25,0.66-0.51,1.28-0.76,1.91c0.13-0.81,0.35-2.41,0.35-2.54
			c0.03-1.4-0.47-3.69-1.46-5.29c0.01-0.21-0.01-0.41-0.04-0.62c-0.26-1.62-1.78-2.82-3.43-2.38c-2.29,0.61-3.74,4.63-3.85,6.74
			c-0.01,0.12,0.08,1.48,0.14,2.34c-0.12-0.5-0.22-0.98-0.35-1.49c-0.24-1.01-0.51-2.01-0.79-3.1c-0.16-0.52-0.31-1.04-0.47-1.57
			c-0.15-0.53-0.37-1.06-0.55-1.6c-0.45-1.24-0.97-2.47-1.52-3.7c0.89-0.21,4.02-1.01,5.28-1.98c1.25-0.96,2.58-2.53,2.57-4.21
			c-0.01-1.64-1.33-3.05-3.03-2.87c-2.35,0.26-4.4,4.01-4.82,6.08c-0.03,0.13-0.17,1.65-0.23,2.49c-0.34-0.74-0.67-1.47-1.03-2.21
			c-1.05-2.12-2.18-4.23-3.3-6.34c-0.34-0.65-0.68-1.3-1.01-1.94c0.32-0.07,4.06-0.94,5.47-2.02c1.25-0.96,2.58-2.53,2.57-4.21
			c-0.01-1.64-1.33-3.05-3.03-2.87c-2.35,0.26-4.4,4.01-4.82,6.08c-0.03,0.16-0.23,2.34-0.25,2.9c-0.74-1.43-1.47-2.86-2.12-4.29
			c-0.91-1.98-1.69-3.98-2.31-5.97c0.15-0.03,4.06-0.92,5.5-2.03c1.25-0.96,2.58-2.53,2.57-4.21c-0.01-1.64-1.33-3.05-3.03-2.87
			c-2.35,0.26-4.4,4.01-4.82,6.08c-0.03,0.16-0.24,2.52-0.25,2.95c-0.04-0.12-0.09-0.24-0.12-0.36c-0.63-2.13-0.97-4.28-1.2-6.3
			c-0.13-1.18-0.19-2.31-0.23-3.41c0.75-0.09,4.15-0.54,5.56-1.4c1.35-0.82,2.84-2.24,3.02-3.9c0.17-1.63-0.99-3.18-2.69-3.18
			c-2.37,0-4.81,3.5-5.46,5.51c-0.04,0.11-0.27,1.26-0.43,2.1c-0.01-0.5-0.02-1.01-0.02-1.49c0-1.79,0.12-3.43,0.23-4.88
			c0.07-0.82,0.15-1.57,0.23-2.26c0.69-0.47,3.42-2.4,4.27-3.79c0.82-1.35,1.49-3.29,0.88-4.85c-0.6-1.52-2.34-2.37-3.86-1.58
			c-2.1,1.09-2.66,5.32-2.31,7.41c0.03,0.18,0.82,2.94,0.86,2.92c0,0,0.03-0.02,0.04-0.03c-0.09,0.67-0.18,1.38-0.27,2.17
			c-0.14,1.45-0.29,3.09-0.34,4.89c-0.05,1.8-0.05,3.75,0.14,5.81c0.18,2.06,0.48,4.22,1.08,6.41c0.01,0.02,0.02,0.05,0.02,0.07
			c-0.37-0.58-1.47-2.19-1.57-2.3c-1.38-1.6-5-3.88-7.18-2.95c-1.57,0.67-2.03,2.55-1.24,3.98
			C164.32,379.36,166.25,380.09,167.81,380.32z"/>
		<path class="st0" d="M208.41,369.19c0.04,0.02,0.76-2.76,0.78-2.94c0.29-2.09-0.38-6.31-2.51-7.34c-1.54-0.74-3.25,0.15-3.81,1.69
			c-0.57,1.57,0.15,3.5,1.01,4.82C204.89,366.98,208.41,369.19,208.41,369.19z"/>
	</g>
	<g>
		<path class="st0" d="M323.44,371.97c1.58,0.69,5.45,0.6,5.46,0.6c0.04,0-0.83-2.53-0.91-2.69c-0.85-1.78-3.54-4.71-5.72-4.42
			c-1.57,0.21-2.45,1.79-2.09,3.27C320.54,370.26,322.1,371.38,323.44,371.97z"/>
		<path class="st0" d="M324.78,383.19c1.64,0.24,5.1-0.76,5.37-0.84c0.55,1.93,1.26,3.87,2.1,5.8c0.47,1.1,0.99,2.19,1.52,3.28
			c-0.31-0.46-0.6-0.87-0.65-0.93c-1.29-1.49-4.65-3.61-6.68-2.75c-1.46,0.62-1.89,2.37-1.16,3.71c0.75,1.36,2.55,2.04,4,2.25
			c1.48,0.22,4.44-0.58,5.22-0.8c0.21,0.42,0.41,0.83,0.62,1.25c1,1.99,2.01,3.98,2.94,5.95c0.33,0.7,0.62,1.39,0.92,2.09
			c-0.28-0.41-0.52-0.75-0.56-0.8c-1.29-1.49-4.65-3.61-6.68-2.75c-1.46,0.62-1.89,2.37-1.16,3.71c0.75,1.36,2.55,2.04,4,2.25
			c1.41,0.21,4.15-0.5,5.08-0.76c0.29,0.72,0.57,1.45,0.82,2.16c0.16,0.49,0.34,0.95,0.47,1.45c0.14,0.49,0.27,0.98,0.41,1.47
			c0.23,0.94,0.46,1.91,0.66,2.84c0.14,0.64,0.27,1.26,0.39,1.88c-0.32-0.7-0.97-2.05-1.04-2.15c-1.05-1.67-4.05-4.27-6.19-3.73
			c-1.54,0.39-2.23,2.06-1.7,3.49c0.53,1.46,2.21,2.4,3.61,2.83c1.55,0.47,4.98,0.04,5.41-0.02c0.21,1.02,0.4,2.02,0.56,2.97
			c0.34,1.92,0.6,3.65,0.8,5.15h1.44c-0.24-1.55-0.56-3.37-0.96-5.39c-0.2-1.04-0.44-2.15-0.7-3.29c0.26-0.1,1.72-0.69,3.02-1.42
			c1.13,1.22,4.02,2.65,4.4,2.84c-0.39,0.97-0.79,1.91-1.17,2.78c-0.73,1.67-1.42,3.17-2.04,4.47h1.55c0.53-1.19,1.1-2.51,1.7-3.97
			c0.4-0.98,0.82-2.04,1.23-3.13c0.42,0.09,3.81,0.78,5.39,0.42c1.43-0.32,3.17-1.14,3.81-2.55c0.63-1.39,0.07-3.1-1.44-3.61
			c-2.09-0.7-5.28,1.67-6.45,3.26c-0.07,0.09-0.7,1.19-1.09,1.89c0.17-0.45,0.33-0.88,0.5-1.34c0.33-0.91,0.64-1.83,0.97-2.81
			c0.14-0.48,0.29-0.97,0.44-1.46c0.16-0.48,0.26-1.02,0.39-1.53c0.28-1.19,0.51-2.42,0.72-3.66c0.8,0.29,3.64,1.28,5.12,1.18
			c1.47-0.1,3.31-0.64,4.16-1.95c0.83-1.28,0.54-3.06-0.88-3.78c-1.96-1.01-5.47,0.85-6.87,2.24c-0.09,0.09-0.98,1.2-1.45,1.82
			c0.12-0.75,0.24-1.49,0.33-2.25c0.27-2.19,0.48-4.41,0.69-6.62c0.07-0.68,0.14-1.35,0.21-2.03c0.28,0.11,3.64,1.36,5.29,1.24
			c1.47-0.1,3.31-0.64,4.16-1.95c0.83-1.28,0.54-3.06-0.88-3.78c-1.96-1.01-5.47,0.85-6.87,2.24c-0.1,0.1-1.38,1.7-1.69,2.13
			c0.16-1.49,0.33-2.97,0.56-4.43c0.31-2.01,0.73-3.96,1.27-5.82c0.13,0.05,3.63,1.37,5.32,1.25c1.47-0.1,3.31-0.64,4.16-1.95
			c0.83-1.28,0.54-3.06-0.88-3.78c-1.96-1.01-5.47,0.85-6.87,2.24c-0.11,0.11-1.48,1.83-1.71,2.16c0.03-0.11,0.05-0.23,0.09-0.34
			c0.61-1.98,1.44-3.82,2.31-5.51c0.5-0.98,1.04-1.89,1.58-2.77c0.63,0.31,3.5,1.71,5.04,1.77c1.47,0.06,3.36-0.28,4.35-1.48
			c0.97-1.18,0.87-2.98-0.46-3.86c-1.84-1.22-5.53,0.25-7.07,1.47c-0.08,0.07-0.86,0.84-1.42,1.41c0.25-0.39,0.5-0.8,0.75-1.17
			c0.92-1.39,1.85-2.6,2.69-3.67c0.48-0.6,0.92-1.14,1.34-1.64c0.77-0.01,3.9-0.11,5.26-0.75c1.33-0.63,2.85-1.79,3.18-3.31
			c0.32-1.49-0.6-3.04-2.18-3.21c-2.19-0.24-4.8,2.77-5.6,4.57c-0.07,0.16-0.87,2.71-0.83,2.71c0,0,0.04,0,0.05,0
			c-0.42,0.47-0.85,0.98-1.32,1.55c-0.86,1.05-1.82,2.25-2.77,3.63c-0.96,1.37-1.96,2.89-2.88,4.58c-0.92,1.7-1.8,3.53-2.46,5.53
			c-0.01,0.02-0.01,0.05-0.02,0.07c0.01-0.65-0.02-2.45-0.04-2.59c-0.25-1.95-1.89-5.58-4.06-5.98c-1.56-0.29-2.89,0.94-3.01,2.45
			c-0.13,1.55,1,3.1,2.09,4.08c1.24,1.1,4.67,2.18,4.95,2.26c-0.61,1.91-1.08,3.93-1.45,5.99c-0.21,1.18-0.39,2.37-0.55,3.57
			c-0.01-0.56-0.02-1.06-0.03-1.13c-0.25-1.95-1.89-5.58-4.06-5.98c-1.56-0.29-2.89,0.94-3.01,2.45c-0.13,1.55,1,3.1,2.1,4.08
			c1.11,0.99,4.02,1.97,4.8,2.21c-0.06,0.46-0.12,0.92-0.17,1.38c-0.26,2.21-0.52,4.42-0.83,6.58c-0.11,0.76-0.25,1.51-0.38,2.25
			c-0.01-0.5-0.02-0.91-0.03-0.98c-0.25-1.95-1.89-5.58-4.06-5.98c-1.56-0.29-2.89,0.94-3.01,2.45c-0.13,1.55,1,3.1,2.1,4.08
			c1.06,0.95,3.74,1.87,4.66,2.17c-0.16,0.76-0.32,1.52-0.51,2.25c-0.14,0.5-0.24,0.98-0.41,1.47c-0.16,0.49-0.31,0.97-0.47,1.45
			c-0.33,0.91-0.67,1.85-1.01,2.73c-0.24,0.61-0.47,1.19-0.71,1.78c0.12-0.76,0.32-2.24,0.32-2.37c0.03-1.31-0.43-3.43-1.36-4.93
			c0.01-0.19-0.01-0.39-0.04-0.58c-0.24-1.51-1.66-2.62-3.19-2.21c-2.13,0.57-3.48,4.31-3.58,6.28c-0.01,0.12,0.07,1.38,0.13,2.18
			c-0.11-0.46-0.21-0.91-0.32-1.39c-0.22-0.94-0.47-1.88-0.74-2.88c-0.15-0.48-0.29-0.97-0.44-1.46c-0.14-0.49-0.34-0.99-0.51-1.49
			c-0.42-1.15-0.9-2.3-1.42-3.45c0.82-0.2,3.74-0.94,4.92-1.84c1.17-0.9,2.4-2.36,2.39-3.92c-0.01-1.52-1.24-2.84-2.82-2.67
			c-2.19,0.24-4.1,3.73-4.49,5.66c-0.02,0.12-0.15,1.54-0.21,2.32c-0.31-0.69-0.62-1.37-0.96-2.06c-0.98-1.97-2.03-3.94-3.08-5.91
			c-0.32-0.6-0.63-1.21-0.94-1.81c0.29-0.07,3.78-0.88,5.1-1.88c1.17-0.9,2.4-2.36,2.39-3.92c-0.01-1.52-1.24-2.84-2.82-2.67
			c-2.19,0.24-4.1,3.73-4.49,5.66c-0.03,0.15-0.21,2.18-0.24,2.7c-0.69-1.33-1.37-2.66-1.98-4c-0.85-1.85-1.58-3.71-2.15-5.56
			c0.14-0.03,3.78-0.86,5.13-1.89c1.17-0.9,2.4-2.36,2.39-3.92c-0.01-1.52-1.24-2.84-2.82-2.67c-2.19,0.24-4.1,3.73-4.49,5.66
			c-0.03,0.15-0.23,2.34-0.24,2.74c-0.03-0.11-0.08-0.22-0.11-0.33c-0.59-1.99-0.91-3.98-1.12-5.87c-0.12-1.1-0.18-2.15-0.21-3.18
			c0.69-0.08,3.87-0.51,5.18-1.3c1.26-0.76,2.65-2.08,2.81-3.63c0.16-1.52-0.92-2.96-2.51-2.97c-2.21,0-4.48,3.26-5.09,5.13
			c-0.03,0.1-0.25,1.17-0.4,1.96c-0.01-0.46-0.02-0.94-0.02-1.39c0-1.67,0.11-3.19,0.21-4.55c0.07-0.77,0.14-1.46,0.22-2.11
			c0.64-0.44,3.19-2.24,3.97-3.53c0.77-1.26,1.39-3.07,0.82-4.52c-0.56-1.42-2.18-2.21-3.59-1.48c-1.96,1.01-2.47,4.96-2.15,6.9
			c0.03,0.17,0.77,2.74,0.8,2.72c0,0,0.03-0.02,0.04-0.03c-0.09,0.62-0.17,1.29-0.25,2.02c-0.13,1.35-0.27,2.88-0.31,4.56
			c-0.04,1.67-0.04,3.49,0.13,5.41c0.17,1.92,0.45,3.93,1,5.97c0.01,0.02,0.02,0.05,0.02,0.07c-0.35-0.54-1.37-2.04-1.46-2.14
			c-1.29-1.49-4.65-3.61-6.68-2.75c-1.46,0.62-1.89,2.37-1.16,3.71C321.53,382.3,323.33,382.97,324.78,383.19z"/>
		<path class="st0" d="M362.6,372.82c0.03,0.02,0.7-2.57,0.73-2.74c0.27-1.95-0.35-5.88-2.34-6.84c-1.43-0.69-3.03,0.14-3.55,1.57
			c-0.53,1.46,0.14,3.26,0.94,4.49C359.32,370.76,362.6,372.82,362.6,372.82z"/>
	</g>
	<g>
		<path class="st0" d="M403.33,340.2c2.58,1.13,8.9,0.99,8.91,0.99c0.07,0-1.36-4.14-1.48-4.39c-1.39-2.9-5.77-7.69-9.34-7.21
			c-2.57,0.35-4,2.92-3.42,5.34C398.6,337.4,401.13,339.24,403.33,340.2z"/>
		<path class="st0" d="M405.52,358.51c2.68,0.39,8.32-1.24,8.77-1.38c0.89,3.16,2.06,6.33,3.42,9.47c0.78,1.8,1.61,3.58,2.48,5.36
			c-0.51-0.75-0.98-1.42-1.06-1.51c-2.1-2.43-7.6-5.89-10.91-4.49c-2.39,1.01-3.09,3.87-1.89,6.05c1.22,2.23,4.16,3.33,6.53,3.68
			c2.41,0.35,7.25-0.95,8.52-1.31c0.34,0.68,0.67,1.36,1.01,2.04c1.63,3.25,3.28,6.49,4.79,9.72c0.53,1.14,1.02,2.28,1.51,3.41
			c-0.46-0.67-0.85-1.23-0.92-1.31c-2.1-2.43-7.6-5.89-10.91-4.49c-2.39,1.01-3.09,3.87-1.89,6.05c1.22,2.23,4.16,3.33,6.53,3.68
			c2.3,0.34,6.78-0.82,8.29-1.24c0.47,1.18,0.93,2.36,1.33,3.53c0.25,0.8,0.55,1.56,0.76,2.37c0.23,0.81,0.45,1.61,0.67,2.4
			c0.37,1.54,0.76,3.12,1.08,4.63c0.23,1.05,0.43,2.05,0.64,3.06c-0.52-1.14-1.58-3.34-1.69-3.52c-1.71-2.72-6.62-6.98-10.11-6.09
			c-2.51,0.64-3.64,3.36-2.78,5.7c0.87,2.39,3.6,3.92,5.9,4.62c2.53,0.77,8.13,0.07,8.83-0.03c0.34,1.67,0.65,3.3,0.91,4.85
			c0.55,3.13,0.98,5.96,1.31,8.41h2.35c-0.4-2.54-0.91-5.51-1.56-8.8c-0.33-1.7-0.72-3.51-1.14-5.36c0.42-0.17,2.81-1.13,4.92-2.32
			c1.84,2,6.57,4.33,7.18,4.63c-0.64,1.58-1.28,3.11-1.91,4.55c-1.19,2.73-2.32,5.18-3.34,7.31h2.53c0.86-1.94,1.8-4.1,2.77-6.48
			c0.66-1.6,1.33-3.33,2.01-5.11c0.68,0.14,6.22,1.27,8.8,0.68c2.34-0.53,5.18-1.85,6.23-4.17c1.03-2.27,0.11-5.06-2.35-5.89
			c-3.41-1.15-8.62,2.73-10.53,5.32c-0.11,0.15-1.15,1.95-1.79,3.09c0.27-0.73,0.54-1.43,0.81-2.18c0.54-1.49,1.04-2.98,1.59-4.59
			c0.24-0.79,0.47-1.58,0.71-2.38c0.25-0.79,0.42-1.66,0.64-2.49c0.46-1.95,0.84-3.95,1.17-5.97c1.3,0.47,5.95,2.09,8.35,1.92
			c2.4-0.17,5.4-1.05,6.79-3.18c1.36-2.09,0.87-4.99-1.43-6.18c-3.2-1.65-8.94,1.39-11.22,3.66c-0.14,0.14-1.59,1.95-2.37,2.96
			c0.19-1.22,0.39-2.43,0.54-3.67c0.44-3.57,0.78-7.2,1.13-10.82c0.11-1.11,0.23-2.21,0.34-3.32c0.46,0.17,5.94,2.21,8.64,2.02
			c2.4-0.17,5.4-1.05,6.79-3.18c1.36-2.09,0.87-4.99-1.43-6.18c-3.2-1.65-8.94,1.39-11.22,3.66c-0.17,0.17-2.26,2.78-2.76,3.47
			c0.26-2.43,0.54-4.85,0.91-7.23c0.51-3.28,1.19-6.47,2.08-9.51c0.21,0.08,5.93,2.24,8.69,2.04c2.4-0.17,5.4-1.05,6.79-3.18
			c1.36-2.09,0.87-4.99-1.43-6.18c-3.2-1.65-8.94,1.39-11.22,3.66c-0.18,0.18-2.42,2.99-2.79,3.53c0.05-0.18,0.09-0.37,0.14-0.55
			c0.99-3.23,2.35-6.24,3.77-9c0.82-1.6,1.69-3.09,2.57-4.52c1.02,0.51,5.72,2.79,8.22,2.89c2.4,0.1,5.48-0.45,7.1-2.41
			c1.58-1.92,1.42-4.86-0.74-6.3c-3-1.99-9.04,0.4-11.55,2.41c-0.14,0.11-1.4,1.37-2.31,2.3c0.41-0.64,0.82-1.3,1.22-1.91
			c1.51-2.27,3.03-4.25,4.39-6c0.78-0.99,1.51-1.86,2.19-2.68c1.26-0.02,6.36-0.18,8.59-1.22c2.17-1.02,4.66-2.93,5.19-5.41
			c0.51-2.44-0.98-4.97-3.56-5.25c-3.58-0.39-7.83,4.52-9.14,7.46c-0.11,0.25-1.42,4.43-1.36,4.43c0,0,0.06,0,0.08,0
			c-0.68,0.77-1.4,1.6-2.16,2.53c-1.4,1.72-2.97,3.68-4.53,5.92c-1.57,2.24-3.2,4.72-4.69,7.48c-1.5,2.77-2.93,5.76-4.01,9.03
			c-0.01,0.04-0.02,0.08-0.03,0.11c0.02-1.05-0.03-4.01-0.06-4.23c-0.41-3.19-3.09-9.11-6.63-9.76c-2.55-0.47-4.71,1.53-4.91,4.01
			c-0.21,2.53,1.63,5.07,3.42,6.67c2.02,1.8,7.63,3.55,8.07,3.69c-1,3.12-1.77,6.41-2.37,9.78c-0.34,1.93-0.63,3.88-0.89,5.84
			c-0.01-0.91-0.03-1.73-0.05-1.84c-0.41-3.19-3.09-9.11-6.63-9.76c-2.55-0.47-4.71,1.53-4.92,4.01c-0.21,2.53,1.63,5.07,3.42,6.67
			c1.82,1.62,6.57,3.21,7.83,3.61c-0.09,0.75-0.19,1.5-0.28,2.26c-0.43,3.61-0.85,7.22-1.36,10.75c-0.18,1.24-0.41,2.46-0.62,3.68
			c-0.01-0.81-0.03-1.49-0.04-1.6c-0.41-3.19-3.09-9.11-6.63-9.76c-2.55-0.47-4.71,1.53-4.91,4.01c-0.21,2.53,1.63,5.07,3.42,6.67
			c1.73,1.55,6.11,3.05,7.6,3.54c-0.26,1.24-0.52,2.49-0.83,3.68c-0.23,0.81-0.4,1.6-0.67,2.4c-0.26,0.8-0.51,1.59-0.76,2.37
			c-0.54,1.49-1.09,3.02-1.65,4.46c-0.39,1-0.77,1.95-1.16,2.91c0.19-1.23,0.53-3.66,0.53-3.87c0.05-2.14-0.71-5.61-2.22-8.05
			c0.01-0.32-0.01-0.63-0.06-0.94c-0.39-2.46-2.7-4.28-5.21-3.61c-3.48,0.93-5.69,7.03-5.85,10.25c-0.01,0.19,0.11,2.26,0.21,3.56
			c-0.18-0.76-0.34-1.49-0.53-2.27c-0.36-1.54-0.77-3.06-1.21-4.71c-0.24-0.79-0.48-1.58-0.72-2.38c-0.22-0.8-0.56-1.62-0.84-2.43
			c-0.69-1.88-1.48-3.76-2.31-5.62c1.35-0.32,6.11-1.54,8.03-3.01c1.91-1.46,3.93-3.85,3.91-6.4c-0.02-2.49-2.02-4.64-4.6-4.36
			c-3.58,0.39-6.69,6.09-7.34,9.24c-0.04,0.2-0.25,2.51-0.34,3.78c-0.51-1.12-1.02-2.24-1.57-3.36c-1.6-3.22-3.32-6.43-5.02-9.65
			c-0.52-0.98-1.03-1.97-1.54-2.96c0.48-0.11,6.18-1.43,8.32-3.08c1.91-1.46,3.93-3.85,3.91-6.4c-0.02-2.49-2.02-4.64-4.6-4.36
			c-3.58,0.39-6.69,6.09-7.34,9.24c-0.05,0.24-0.35,3.56-0.38,4.41c-1.13-2.17-2.23-4.34-3.23-6.53c-1.39-3.02-2.58-6.05-3.52-9.08
			c0.22-0.05,6.18-1.4,8.37-3.09c1.91-1.46,3.93-3.85,3.91-6.4c-0.02-2.49-2.02-4.64-4.6-4.36c-3.58,0.39-6.69,6.09-7.34,9.24
			c-0.05,0.25-0.37,3.83-0.38,4.48c-0.06-0.18-0.13-0.36-0.19-0.54c-0.96-3.24-1.48-6.51-1.82-9.58c-0.2-1.79-0.29-3.51-0.34-5.18
			c1.13-0.14,6.31-0.83,8.46-2.13c2.05-1.24,4.33-3.4,4.59-5.93c0.26-2.48-1.5-4.84-4.1-4.84c-3.6-0.01-7.31,5.32-8.31,8.38
			c-0.05,0.17-0.41,1.92-0.66,3.2c-0.01-0.76-0.04-1.54-0.03-2.26c0-2.72,0.18-5.22,0.35-7.42c0.11-1.25,0.23-2.39,0.35-3.44
			c1.04-0.72,5.21-3.66,6.49-5.76c1.25-2.05,2.27-5.01,1.34-7.37c-0.91-2.31-3.56-3.6-5.87-2.41c-3.2,1.65-4.04,8.09-3.51,11.26
			c0.05,0.27,1.25,4.48,1.31,4.44c0,0,0.05-0.03,0.06-0.04c-0.14,1.02-0.28,2.11-0.41,3.3c-0.22,2.21-0.45,4.7-0.51,7.44
			c-0.07,2.73-0.07,5.7,0.21,8.83c0.28,3.14,0.73,6.42,1.64,9.74c0.01,0.04,0.03,0.08,0.04,0.11c-0.57-0.89-2.23-3.33-2.38-3.5
			c-2.1-2.43-7.6-5.89-10.91-4.49c-2.39,1.01-3.09,3.87-1.89,6.05C400.21,357.06,403.14,358.16,405.52,358.51z"/>
		<path class="st0" d="M467.27,341.59c0.06,0.03,1.15-4.2,1.19-4.48c0.44-3.18-0.57-9.6-3.81-11.17c-2.34-1.13-4.95,0.23-5.8,2.57
			c-0.87,2.39,0.23,5.32,1.54,7.34C461.91,338.22,467.26,341.59,467.27,341.59z"/>
	</g>
	<g>
		<path class="st0" d="M631.86,340.2c2.58,1.13,8.9,0.99,8.91,0.99c0.07,0-1.36-4.14-1.48-4.39c-1.39-2.9-5.77-7.69-9.34-7.21
			c-2.57,0.35-4,2.92-3.42,5.34C627.12,337.4,629.66,339.24,631.86,340.2z"/>
		<path class="st0" d="M634.04,358.51c2.68,0.39,8.32-1.24,8.77-1.38c0.89,3.16,2.06,6.33,3.42,9.47c0.78,1.8,1.61,3.58,2.48,5.36
			c-0.51-0.75-0.98-1.42-1.06-1.51c-2.1-2.43-7.6-5.89-10.91-4.49c-2.39,1.01-3.09,3.87-1.89,6.05c1.22,2.23,4.16,3.33,6.53,3.68
			c2.41,0.35,7.25-0.95,8.52-1.31c0.34,0.68,0.67,1.36,1.01,2.04c1.63,3.25,3.28,6.49,4.79,9.72c0.53,1.14,1.02,2.28,1.51,3.41
			c-0.46-0.67-0.85-1.23-0.92-1.31c-2.1-2.43-7.6-5.89-10.91-4.49c-2.39,1.01-3.09,3.87-1.89,6.05c1.22,2.23,4.16,3.33,6.53,3.68
			c2.3,0.34,6.78-0.82,8.29-1.24c0.47,1.18,0.93,2.36,1.33,3.53c0.25,0.8,0.55,1.56,0.76,2.37c0.23,0.81,0.45,1.61,0.67,2.4
			c0.37,1.54,0.76,3.12,1.08,4.63c0.23,1.05,0.43,2.05,0.64,3.06c-0.52-1.14-1.58-3.34-1.69-3.52c-1.71-2.72-6.62-6.98-10.11-6.09
			c-2.51,0.64-3.64,3.36-2.78,5.7c0.87,2.39,3.6,3.92,5.9,4.62c2.53,0.77,8.13,0.07,8.83-0.03c0.34,1.67,0.65,3.3,0.91,4.85
			c0.55,3.13,0.98,5.96,1.31,8.41h2.35c-0.4-2.54-0.91-5.51-1.56-8.8c-0.33-1.7-0.72-3.51-1.14-5.36c0.42-0.17,2.81-1.13,4.92-2.32
			c1.84,2,6.57,4.33,7.18,4.63c-0.64,1.58-1.28,3.11-1.91,4.55c-1.19,2.73-2.32,5.18-3.34,7.31h2.53c0.86-1.94,1.8-4.1,2.77-6.48
			c0.66-1.6,1.33-3.33,2.01-5.11c0.68,0.14,6.22,1.27,8.8,0.68c2.34-0.53,5.18-1.85,6.23-4.17c1.03-2.27,0.11-5.06-2.35-5.89
			c-3.41-1.15-8.62,2.73-10.53,5.32c-0.11,0.15-1.15,1.95-1.79,3.09c0.27-0.73,0.54-1.43,0.81-2.18c0.54-1.49,1.04-2.98,1.59-4.59
			c0.24-0.79,0.47-1.58,0.71-2.38c0.25-0.79,0.42-1.66,0.64-2.49c0.46-1.95,0.84-3.95,1.17-5.97c1.3,0.47,5.95,2.09,8.35,1.92
			c2.4-0.17,5.4-1.05,6.79-3.18c1.36-2.09,0.87-4.99-1.43-6.18c-3.2-1.65-8.94,1.39-11.22,3.66c-0.14,0.14-1.59,1.95-2.37,2.96
			c0.19-1.22,0.39-2.43,0.54-3.67c0.44-3.57,0.78-7.2,1.13-10.82c0.11-1.11,0.23-2.21,0.34-3.32c0.46,0.17,5.94,2.21,8.64,2.02
			c2.4-0.17,5.4-1.05,6.79-3.18c1.36-2.09,0.87-4.99-1.43-6.18c-3.2-1.65-8.94,1.39-11.22,3.66c-0.17,0.17-2.26,2.78-2.76,3.47
			c0.26-2.43,0.54-4.85,0.91-7.23c0.51-3.28,1.19-6.47,2.08-9.51c0.21,0.08,5.93,2.24,8.69,2.04c2.4-0.17,5.4-1.05,6.79-3.18
			c1.36-2.09,0.87-4.99-1.43-6.18c-3.2-1.65-8.94,1.39-11.22,3.66c-0.18,0.18-2.42,2.99-2.79,3.53c0.05-0.18,0.09-0.37,0.14-0.55
			c0.99-3.23,2.35-6.24,3.77-9c0.82-1.6,1.69-3.09,2.57-4.52c1.02,0.51,5.72,2.79,8.22,2.89c2.4,0.1,5.48-0.45,7.1-2.41
			c1.58-1.92,1.42-4.86-0.74-6.3c-3-1.99-9.04,0.4-11.55,2.41c-0.14,0.11-1.4,1.37-2.31,2.3c0.41-0.64,0.82-1.3,1.22-1.91
			c1.51-2.27,3.03-4.25,4.39-6c0.78-0.99,1.51-1.86,2.19-2.68c1.26-0.02,6.36-0.18,8.59-1.22c2.17-1.02,4.66-2.93,5.19-5.41
			c0.51-2.44-0.98-4.97-3.56-5.25c-3.58-0.39-7.83,4.52-9.14,7.46c-0.11,0.25-1.42,4.43-1.36,4.43c0,0,0.06,0,0.08,0
			c-0.68,0.77-1.4,1.6-2.16,2.53c-1.4,1.72-2.97,3.68-4.53,5.92c-1.57,2.24-3.2,4.72-4.7,7.48c-1.5,2.77-2.93,5.76-4.01,9.03
			c-0.01,0.04-0.02,0.08-0.03,0.11c0.02-1.05-0.03-4.01-0.06-4.23c-0.41-3.19-3.09-9.11-6.63-9.76c-2.55-0.47-4.71,1.53-4.91,4.01
			c-0.21,2.53,1.63,5.07,3.42,6.67c2.02,1.8,7.63,3.55,8.07,3.69c-1,3.12-1.77,6.41-2.37,9.78c-0.34,1.93-0.63,3.88-0.89,5.84
			c-0.01-0.91-0.03-1.73-0.05-1.84c-0.41-3.19-3.09-9.11-6.63-9.76c-2.55-0.47-4.71,1.53-4.92,4.01c-0.21,2.53,1.63,5.07,3.42,6.67
			c1.82,1.62,6.57,3.21,7.83,3.61c-0.09,0.75-0.19,1.5-0.28,2.26c-0.43,3.61-0.85,7.22-1.36,10.75c-0.18,1.24-0.41,2.46-0.62,3.68
			c-0.01-0.81-0.03-1.49-0.04-1.6c-0.41-3.19-3.09-9.11-6.63-9.76c-2.55-0.47-4.71,1.53-4.91,4.01c-0.21,2.53,1.63,5.07,3.42,6.67
			c1.73,1.55,6.11,3.05,7.6,3.54c-0.26,1.24-0.52,2.49-0.83,3.68c-0.23,0.81-0.4,1.6-0.67,2.4c-0.26,0.8-0.51,1.59-0.76,2.37
			c-0.54,1.49-1.09,3.02-1.65,4.46c-0.39,1-0.77,1.95-1.16,2.91c0.19-1.23,0.52-3.66,0.53-3.87c0.05-2.14-0.71-5.61-2.22-8.05
			c0.01-0.32-0.01-0.63-0.06-0.94c-0.39-2.46-2.7-4.28-5.21-3.61c-3.48,0.93-5.69,7.03-5.85,10.25c-0.01,0.19,0.11,2.26,0.21,3.56
			c-0.18-0.76-0.34-1.49-0.53-2.27c-0.36-1.54-0.77-3.06-1.21-4.71c-0.24-0.79-0.48-1.58-0.72-2.38c-0.22-0.8-0.56-1.62-0.84-2.43
			c-0.69-1.88-1.48-3.76-2.31-5.62c1.35-0.32,6.11-1.54,8.03-3.01c1.91-1.46,3.93-3.85,3.91-6.4c-0.02-2.49-2.02-4.64-4.6-4.36
			c-3.58,0.39-6.69,6.09-7.34,9.24c-0.04,0.2-0.25,2.51-0.34,3.78c-0.51-1.12-1.02-2.24-1.57-3.36c-1.6-3.22-3.32-6.43-5.02-9.65
			c-0.52-0.98-1.03-1.97-1.54-2.96c0.48-0.11,6.18-1.43,8.32-3.08c1.91-1.46,3.93-3.85,3.91-6.4c-0.02-2.49-2.02-4.64-4.6-4.36
			c-3.58,0.39-6.69,6.09-7.34,9.24c-0.05,0.24-0.35,3.56-0.38,4.41c-1.13-2.17-2.23-4.34-3.23-6.53c-1.39-3.02-2.58-6.05-3.52-9.08
			c0.22-0.05,6.18-1.4,8.37-3.09c1.91-1.46,3.93-3.85,3.91-6.4c-0.02-2.49-2.02-4.64-4.6-4.36c-3.58,0.39-6.69,6.09-7.34,9.24
			c-0.05,0.25-0.37,3.83-0.38,4.48c-0.06-0.18-0.13-0.36-0.19-0.54c-0.96-3.24-1.48-6.51-1.82-9.58c-0.2-1.79-0.29-3.51-0.34-5.18
			c1.13-0.14,6.31-0.83,8.46-2.13c2.05-1.24,4.33-3.4,4.59-5.93c0.26-2.48-1.5-4.84-4.1-4.84c-3.6-0.01-7.31,5.32-8.31,8.38
			c-0.05,0.17-0.41,1.92-0.66,3.2c-0.01-0.76-0.04-1.54-0.03-2.26c0-2.72,0.18-5.22,0.35-7.42c0.11-1.25,0.23-2.39,0.35-3.44
			c1.04-0.72,5.21-3.66,6.49-5.76c1.25-2.05,2.27-5.01,1.34-7.37c-0.91-2.31-3.56-3.6-5.87-2.41c-3.2,1.65-4.04,8.09-3.51,11.26
			c0.05,0.27,1.25,4.48,1.31,4.44c0,0,0.05-0.03,0.06-0.04c-0.14,1.02-0.28,2.11-0.41,3.3c-0.22,2.21-0.45,4.7-0.51,7.44
			c-0.07,2.73-0.07,5.7,0.21,8.83c0.28,3.14,0.73,6.42,1.64,9.74c0.01,0.04,0.03,0.08,0.04,0.11c-0.57-0.89-2.23-3.33-2.38-3.5
			c-2.1-2.43-7.6-5.89-10.91-4.49c-2.39,1.01-3.09,3.87-1.89,6.05C628.73,357.06,631.66,358.16,634.04,358.51z"/>
		<path class="st0" d="M695.79,341.59c0.06,0.03,1.15-4.2,1.19-4.48c0.44-3.18-0.57-9.6-3.81-11.17c-2.34-1.13-4.95,0.23-5.8,2.57
			c-0.87,2.39,0.23,5.32,1.54,7.34C690.44,338.22,695.79,341.59,695.79,341.59z"/>
	</g>
	<g>
		<path class="st0" d="M508.09,340.2c2.58,1.13,8.9,0.99,8.91,0.99c0.07,0-1.36-4.14-1.48-4.39c-1.39-2.9-5.77-7.69-9.34-7.21
			c-2.57,0.35-4,2.92-3.42,5.34C503.35,337.4,505.89,339.24,508.09,340.2z"/>
		<path class="st0" d="M510.27,358.51c2.68,0.39,8.32-1.24,8.77-1.38c0.89,3.16,2.06,6.33,3.42,9.47c0.78,1.8,1.61,3.58,2.48,5.36
			c-0.51-0.75-0.98-1.42-1.06-1.51c-2.1-2.43-7.6-5.89-10.91-4.49c-2.39,1.01-3.09,3.87-1.89,6.05c1.22,2.23,4.16,3.33,6.53,3.68
			c2.41,0.35,7.25-0.95,8.52-1.31c0.34,0.68,0.67,1.36,1.01,2.04c1.63,3.25,3.28,6.49,4.79,9.72c0.53,1.14,1.02,2.28,1.51,3.41
			c-0.46-0.67-0.85-1.23-0.92-1.31c-2.1-2.43-7.6-5.89-10.91-4.49c-2.39,1.01-3.09,3.87-1.89,6.05c1.22,2.23,4.16,3.33,6.53,3.68
			c2.3,0.34,6.78-0.82,8.29-1.24c0.47,1.18,0.93,2.36,1.33,3.53c0.25,0.8,0.55,1.56,0.76,2.37c0.23,0.81,0.45,1.61,0.67,2.4
			c0.37,1.54,0.76,3.12,1.08,4.63c0.23,1.05,0.43,2.05,0.64,3.06c-0.52-1.14-1.58-3.34-1.69-3.52c-1.71-2.72-6.62-6.98-10.11-6.09
			c-2.51,0.64-3.64,3.36-2.78,5.7c0.87,2.39,3.6,3.92,5.9,4.62c2.53,0.77,8.13,0.07,8.83-0.03c0.34,1.67,0.65,3.3,0.91,4.85
			c0.55,3.13,0.98,5.96,1.31,8.41h2.35c-0.4-2.54-0.91-5.51-1.56-8.8c-0.33-1.7-0.72-3.51-1.14-5.36c0.42-0.17,2.81-1.13,4.92-2.32
			c1.84,2,6.57,4.33,7.18,4.63c-0.64,1.58-1.28,3.11-1.91,4.55c-1.19,2.73-2.32,5.18-3.34,7.31h2.53c0.86-1.94,1.8-4.1,2.77-6.48
			c0.66-1.6,1.33-3.33,2.01-5.11c0.68,0.14,6.22,1.27,8.8,0.68c2.34-0.53,5.18-1.85,6.23-4.17c1.03-2.27,0.11-5.06-2.35-5.89
			c-3.41-1.15-8.62,2.73-10.53,5.32c-0.11,0.15-1.15,1.95-1.79,3.09c0.27-0.73,0.54-1.43,0.81-2.18c0.54-1.49,1.04-2.98,1.59-4.59
			c0.24-0.79,0.47-1.58,0.71-2.38c0.25-0.79,0.42-1.66,0.64-2.49c0.46-1.95,0.84-3.95,1.17-5.97c1.3,0.47,5.95,2.09,8.35,1.92
			c2.4-0.17,5.4-1.05,6.79-3.18c1.36-2.09,0.87-4.99-1.43-6.18c-3.2-1.65-8.94,1.39-11.22,3.66c-0.14,0.14-1.59,1.95-2.37,2.96
			c0.19-1.22,0.39-2.43,0.54-3.67c0.44-3.57,0.78-7.2,1.13-10.82c0.11-1.11,0.23-2.21,0.34-3.32c0.46,0.17,5.94,2.21,8.64,2.02
			c2.4-0.17,5.4-1.05,6.79-3.18c1.36-2.09,0.87-4.99-1.43-6.18c-3.2-1.65-8.94,1.39-11.22,3.66c-0.17,0.17-2.26,2.78-2.76,3.47
			c0.26-2.43,0.54-4.85,0.91-7.23c0.51-3.28,1.19-6.47,2.08-9.51c0.21,0.08,5.93,2.24,8.69,2.04c2.4-0.17,5.4-1.05,6.79-3.18
			c1.36-2.09,0.87-4.99-1.43-6.18c-3.2-1.65-8.94,1.39-11.22,3.66c-0.18,0.18-2.42,2.99-2.79,3.53c0.05-0.18,0.09-0.37,0.14-0.55
			c0.99-3.23,2.35-6.24,3.77-9c0.82-1.6,1.69-3.09,2.57-4.52c1.02,0.51,5.72,2.79,8.22,2.89c2.4,0.1,5.48-0.45,7.1-2.41
			c1.58-1.92,1.42-4.86-0.74-6.3c-3-1.99-9.04,0.4-11.55,2.41c-0.14,0.11-1.4,1.37-2.31,2.3c0.41-0.64,0.82-1.3,1.22-1.91
			c1.51-2.27,3.03-4.25,4.39-6c0.78-0.99,1.51-1.86,2.19-2.68c1.26-0.02,6.36-0.18,8.59-1.22c2.17-1.02,4.66-2.93,5.19-5.41
			c0.51-2.44-0.98-4.97-3.56-5.25c-3.58-0.39-7.83,4.52-9.14,7.46c-0.11,0.25-1.42,4.43-1.36,4.43c0,0,0.06,0,0.08,0
			c-0.68,0.77-1.4,1.6-2.16,2.53c-1.4,1.72-2.97,3.68-4.53,5.92c-1.57,2.24-3.2,4.72-4.69,7.48c-1.5,2.77-2.93,5.76-4.01,9.03
			c-0.01,0.04-0.02,0.08-0.03,0.11c0.02-1.05-0.03-4.01-0.06-4.23c-0.41-3.19-3.09-9.11-6.63-9.76c-2.55-0.47-4.71,1.53-4.91,4.01
			c-0.21,2.53,1.63,5.07,3.42,6.67c2.02,1.8,7.63,3.55,8.07,3.69c-1,3.12-1.77,6.41-2.37,9.78c-0.34,1.93-0.63,3.88-0.89,5.84
			c-0.01-0.91-0.03-1.73-0.05-1.84c-0.41-3.19-3.09-9.11-6.63-9.76c-2.55-0.47-4.71,1.53-4.92,4.01c-0.21,2.53,1.63,5.07,3.42,6.67
			c1.82,1.62,6.57,3.21,7.83,3.61c-0.09,0.75-0.19,1.5-0.28,2.26c-0.43,3.61-0.85,7.22-1.36,10.75c-0.18,1.24-0.41,2.46-0.62,3.68
			c-0.01-0.81-0.03-1.49-0.04-1.6c-0.41-3.19-3.09-9.11-6.63-9.76c-2.55-0.47-4.71,1.53-4.91,4.01c-0.21,2.53,1.63,5.07,3.42,6.67
			c1.73,1.55,6.11,3.05,7.6,3.54c-0.26,1.24-0.52,2.49-0.83,3.68c-0.23,0.81-0.4,1.6-0.67,2.4c-0.26,0.8-0.51,1.59-0.76,2.37
			c-0.54,1.49-1.09,3.02-1.65,4.46c-0.39,1-0.77,1.95-1.16,2.91c0.19-1.23,0.52-3.66,0.53-3.87c0.05-2.14-0.71-5.61-2.22-8.05
			c0.01-0.32-0.01-0.63-0.06-0.94c-0.39-2.46-2.7-4.28-5.21-3.61c-3.48,0.93-5.69,7.03-5.85,10.25c-0.01,0.19,0.11,2.26,0.21,3.56
			c-0.18-0.76-0.34-1.49-0.53-2.27c-0.36-1.54-0.77-3.06-1.21-4.71c-0.24-0.79-0.48-1.58-0.72-2.38c-0.22-0.8-0.56-1.62-0.84-2.43
			c-0.69-1.88-1.48-3.76-2.31-5.62c1.35-0.32,6.11-1.54,8.03-3.01c1.91-1.46,3.93-3.85,3.91-6.4c-0.02-2.49-2.02-4.64-4.6-4.36
			c-3.58,0.39-6.69,6.09-7.34,9.24c-0.04,0.2-0.25,2.51-0.34,3.78c-0.51-1.12-1.02-2.24-1.57-3.36c-1.6-3.22-3.32-6.43-5.02-9.65
			c-0.52-0.98-1.03-1.97-1.54-2.96c0.48-0.11,6.18-1.43,8.32-3.08c1.91-1.46,3.93-3.85,3.91-6.4c-0.02-2.49-2.02-4.64-4.6-4.36
			c-3.58,0.39-6.69,6.09-7.34,9.24c-0.05,0.24-0.35,3.56-0.38,4.41c-1.13-2.17-2.23-4.34-3.23-6.53c-1.39-3.02-2.58-6.05-3.52-9.08
			c0.22-0.05,6.18-1.4,8.37-3.09c1.91-1.46,3.93-3.85,3.91-6.4c-0.02-2.49-2.02-4.64-4.6-4.36c-3.58,0.39-6.69,6.09-7.34,9.24
			c-0.05,0.25-0.37,3.83-0.38,4.48c-0.06-0.18-0.13-0.36-0.19-0.54c-0.96-3.24-1.48-6.51-1.82-9.58c-0.2-1.79-0.29-3.51-0.34-5.18
			c1.13-0.14,6.31-0.83,8.46-2.13c2.05-1.24,4.33-3.4,4.59-5.93c0.26-2.48-1.5-4.84-4.1-4.84c-3.6-0.01-7.31,5.32-8.31,8.38
			c-0.05,0.17-0.41,1.92-0.66,3.2c-0.01-0.76-0.04-1.54-0.03-2.26c0-2.72,0.18-5.22,0.35-7.42c0.11-1.25,0.23-2.39,0.35-3.44
			c1.04-0.72,5.21-3.66,6.49-5.76c1.25-2.05,2.27-5.01,1.34-7.37c-0.91-2.31-3.56-3.6-5.87-2.41c-3.2,1.65-4.04,8.09-3.51,11.26
			c0.05,0.27,1.25,4.48,1.31,4.44c0,0,0.05-0.03,0.06-0.04c-0.14,1.02-0.28,2.11-0.41,3.3c-0.22,2.21-0.45,4.7-0.51,7.44
			c-0.07,2.73-0.07,5.7,0.21,8.83c0.28,3.14,0.73,6.42,1.64,9.74c0.01,0.04,0.03,0.08,0.04,0.11c-0.57-0.89-2.23-3.33-2.38-3.5
			c-2.1-2.43-7.6-5.89-10.91-4.49c-2.39,1.01-3.09,3.87-1.89,6.05C504.96,357.06,507.89,358.16,510.27,358.51z"/>
		<path class="st0" d="M572.02,341.59c0.06,0.03,1.15-4.2,1.19-4.48c0.44-3.18-0.57-9.6-3.81-11.17c-2.34-1.13-4.95,0.23-5.8,2.57
			c-0.87,2.39,0.23,5.32,1.54,7.34C566.67,338.22,572.02,341.59,572.02,341.59z"/>
	</g>
	<g>
		<path class="st0" d="M574.38,371.26c1.6,0.7,5.53,0.61,5.53,0.61c0.04,0-0.84-2.57-0.92-2.73c-0.86-1.8-3.59-4.78-5.8-4.48
			c-1.6,0.22-2.48,1.81-2.12,3.32C571.44,369.53,573.01,370.67,574.38,371.26z"/>
		<path class="st0" d="M575.74,382.64c1.66,0.24,5.17-0.77,5.45-0.86c0.55,1.96,1.28,3.93,2.12,5.88c0.48,1.12,1,2.22,1.54,3.33
			c-0.32-0.47-0.61-0.88-0.66-0.94c-1.31-1.51-4.72-3.66-6.78-2.79c-1.48,0.63-1.92,2.41-1.17,3.76c0.76,1.38,2.58,2.07,4.06,2.28
			c1.5,0.22,4.5-0.59,5.29-0.81c0.21,0.42,0.41,0.85,0.63,1.27c1.01,2.02,2.04,4.03,2.98,6.04c0.33,0.71,0.63,1.41,0.94,2.12
			c-0.28-0.42-0.53-0.76-0.57-0.81c-1.31-1.51-4.72-3.66-6.78-2.79c-1.48,0.63-1.92,2.41-1.17,3.76c0.76,1.38,2.58,2.07,4.06,2.28
			c1.43,0.21,4.21-0.51,5.15-0.77c0.29,0.73,0.58,1.47,0.83,2.19c0.16,0.5,0.34,0.97,0.47,1.47c0.14,0.5,0.28,1,0.42,1.49
			c0.23,0.96,0.47,1.94,0.67,2.88c0.14,0.65,0.27,1.27,0.4,1.9c-0.32-0.71-0.98-2.08-1.05-2.18c-1.06-1.69-4.11-4.33-6.28-3.78
			c-1.56,0.4-2.26,2.09-1.73,3.54c0.54,1.48,2.24,2.44,3.66,2.87c1.57,0.48,5.05,0.04,5.48-0.02c0.21,1.04,0.4,2.05,0.57,3.01
			c0.34,1.95,0.61,3.7,0.81,5.22h1.46c-0.25-1.58-0.56-3.42-0.97-5.47c-0.21-1.06-0.45-2.18-0.71-3.33c0.26-0.1,1.74-0.7,3.06-1.44
			c1.14,1.24,4.08,2.69,4.46,2.88c-0.4,0.98-0.8,1.93-1.19,2.82c-0.74,1.7-1.44,3.22-2.07,4.54h1.57c0.54-1.2,1.12-2.55,1.72-4.02
			c0.41-1,0.83-2.07,1.25-3.17c0.42,0.09,3.86,0.79,5.47,0.43c1.45-0.33,3.22-1.15,3.87-2.59c0.64-1.41,0.07-3.15-1.46-3.66
			c-2.12-0.71-5.36,1.7-6.54,3.3c-0.07,0.09-0.71,1.21-1.11,1.92c0.17-0.45,0.34-0.89,0.51-1.36c0.34-0.92,0.65-1.85,0.99-2.85
			c0.15-0.49,0.29-0.98,0.44-1.48c0.16-0.49,0.26-1.03,0.4-1.55c0.29-1.21,0.52-2.45,0.73-3.71c0.81,0.29,3.69,1.3,5.19,1.19
			c1.49-0.1,3.35-0.65,4.22-1.97c0.84-1.3,0.54-3.1-0.89-3.84c-1.99-1.03-5.55,0.86-6.97,2.27c-0.09,0.09-0.99,1.21-1.47,1.84
			c0.12-0.76,0.24-1.51,0.34-2.28c0.28-2.22,0.48-4.47,0.7-6.72c0.07-0.69,0.14-1.37,0.21-2.06c0.29,0.11,3.69,1.38,5.37,1.26
			c1.49-0.1,3.35-0.65,4.22-1.97c0.84-1.3,0.54-3.1-0.89-3.84c-1.99-1.03-5.55,0.86-6.97,2.27c-0.11,0.11-1.4,1.73-1.71,2.16
			c0.16-1.51,0.33-3.01,0.56-4.49c0.32-2.04,0.74-4.02,1.29-5.91c0.13,0.05,3.68,1.39,5.4,1.27c1.49-0.1,3.35-0.65,4.22-1.97
			c0.84-1.3,0.54-3.1-0.89-3.84c-1.99-1.03-5.55,0.86-6.97,2.27c-0.11,0.11-1.5,1.86-1.73,2.19c0.03-0.11,0.06-0.23,0.09-0.34
			c0.61-2.01,1.46-3.88,2.34-5.59c0.51-1,1.05-1.92,1.6-2.8c0.64,0.32,3.55,1.73,5.11,1.8c1.49,0.06,3.41-0.28,4.41-1.5
			c0.98-1.2,0.88-3.02-0.46-3.91c-1.86-1.24-5.61,0.25-7.17,1.49c-0.08,0.07-0.87,0.85-1.44,1.43c0.25-0.4,0.51-0.81,0.76-1.18
			c0.94-1.41,1.88-2.64,2.72-3.73c0.49-0.61,0.94-1.16,1.36-1.66c0.79-0.01,3.95-0.11,5.33-0.76c1.35-0.63,2.89-1.82,3.22-3.36
			c0.32-1.51-0.61-3.09-2.21-3.26c-2.22-0.24-4.87,2.81-5.68,4.63c-0.07,0.16-0.88,2.75-0.84,2.75c0,0,0.04,0,0.05,0
			c-0.42,0.48-0.87,1-1.34,1.57c-0.87,1.07-1.84,2.28-2.81,3.68c-0.97,1.39-1.99,2.93-2.92,4.65c-0.93,1.72-1.82,3.58-2.49,5.61
			c-0.01,0.02-0.01,0.05-0.02,0.07c0.01-0.65-0.02-2.49-0.04-2.63c-0.26-1.98-1.92-5.66-4.12-6.06c-1.58-0.29-2.93,0.95-3.05,2.49
			c-0.13,1.57,1.01,3.15,2.12,4.14c1.25,1.12,4.74,2.21,5.02,2.29c-0.62,1.94-1.1,3.98-1.47,6.08c-0.21,1.2-0.39,2.41-0.55,3.63
			c-0.01-0.57-0.02-1.07-0.03-1.14c-0.26-1.98-1.92-5.66-4.12-6.06c-1.58-0.29-2.93,0.95-3.05,2.49c-0.13,1.57,1.01,3.15,2.12,4.14
			c1.13,1.01,4.08,1.99,4.86,2.24c-0.06,0.47-0.12,0.93-0.18,1.4c-0.27,2.24-0.53,4.49-0.85,6.68c-0.11,0.77-0.25,1.53-0.39,2.29
			c-0.01-0.5-0.02-0.93-0.03-0.99c-0.26-1.98-1.92-5.66-4.12-6.06c-1.58-0.29-2.93,0.95-3.05,2.49c-0.13,1.57,1.01,3.15,2.12,4.14
			c1.08,0.96,3.79,1.9,4.72,2.2c-0.16,0.77-0.33,1.54-0.52,2.28c-0.14,0.5-0.25,1-0.42,1.49c-0.16,0.5-0.32,0.99-0.47,1.47
			c-0.34,0.92-0.68,1.88-1.03,2.77c-0.24,0.62-0.48,1.21-0.72,1.81c0.12-0.77,0.33-2.27,0.33-2.4c0.03-1.33-0.44-3.48-1.38-5
			c0.01-0.2-0.01-0.39-0.04-0.59c-0.25-1.53-1.68-2.66-3.24-2.25c-2.16,0.58-3.53,4.37-3.63,6.36c-0.01,0.12,0.07,1.4,0.13,2.21
			c-0.11-0.47-0.21-0.93-0.33-1.41c-0.23-0.96-0.48-1.9-0.75-2.92c-0.15-0.49-0.3-0.98-0.45-1.48c-0.14-0.5-0.35-1-0.52-1.51
			c-0.43-1.17-0.92-2.33-1.44-3.49c0.84-0.2,3.8-0.96,4.99-1.87c1.18-0.91,2.44-2.39,2.43-3.97c-0.01-1.55-1.26-2.88-2.86-2.71
			c-2.22,0.24-4.15,3.78-4.56,5.74c-0.03,0.12-0.16,1.56-0.21,2.35c-0.32-0.7-0.63-1.39-0.98-2.08c-0.99-2-2.06-4-3.12-5.99
			c-0.32-0.61-0.64-1.22-0.96-1.84c0.3-0.07,3.84-0.89,5.17-1.91c1.18-0.91,2.44-2.39,2.43-3.97c-0.01-1.55-1.26-2.88-2.86-2.71
			c-2.22,0.24-4.15,3.78-4.56,5.74c-0.03,0.15-0.22,2.21-0.24,2.74c-0.7-1.35-1.39-2.7-2.01-4.06c-0.86-1.87-1.6-3.76-2.18-5.64
			c0.14-0.03,3.84-0.87,5.2-1.92c1.18-0.91,2.44-2.39,2.43-3.97c-0.01-1.55-1.26-2.88-2.86-2.71c-2.22,0.24-4.15,3.78-4.56,5.74
			c-0.03,0.15-0.23,2.38-0.24,2.78c-0.03-0.11-0.08-0.22-0.12-0.34c-0.6-2.01-0.92-4.04-1.13-5.95c-0.12-1.11-0.18-2.18-0.21-3.22
			c0.7-0.09,3.92-0.51,5.25-1.32c1.28-0.77,2.69-2.11,2.85-3.68c0.16-1.54-0.93-3-2.54-3.01c-2.24,0-4.54,3.3-5.16,5.2
			c-0.03,0.1-0.26,1.19-0.41,1.99c-0.01-0.47-0.02-0.96-0.02-1.41c0-1.69,0.11-3.24,0.22-4.61c0.07-0.78,0.14-1.48,0.22-2.14
			c0.65-0.45,3.23-2.27,4.03-3.58c0.78-1.27,1.41-3.11,0.83-4.58c-0.57-1.44-2.21-2.24-3.64-1.5c-1.99,1.03-2.51,5.03-2.18,7
			c0.03,0.17,0.78,2.78,0.81,2.76c0,0,0.03-0.02,0.04-0.03c-0.09,0.63-0.17,1.31-0.25,2.05c-0.14,1.37-0.28,2.92-0.32,4.62
			c-0.04,1.7-0.04,3.54,0.13,5.48c0.17,1.95,0.45,3.99,1.02,6.05c0.01,0.02,0.02,0.05,0.02,0.07c-0.35-0.55-1.39-2.07-1.48-2.17
			c-1.31-1.51-4.72-3.66-6.78-2.79c-1.48,0.63-1.92,2.41-1.17,3.76C572.44,381.74,574.26,382.42,575.74,382.64z"/>
		<path class="st0" d="M614.09,372.13c0.03,0.02,0.71-2.61,0.74-2.78c0.28-1.98-0.35-5.96-2.37-6.93c-1.45-0.7-3.07,0.14-3.6,1.59
			c-0.54,1.48,0.14,3.3,0.96,4.56C610.76,370.03,614.09,372.13,614.09,372.13z"/>
	</g>
	<g>
		<path class="st0" d="M254.55,340.2c2.58,1.13,8.9,0.99,8.91,0.99c0.07,0-1.36-4.14-1.48-4.39c-1.39-2.9-5.77-7.69-9.34-7.21
			c-2.57,0.35-4,2.92-3.42,5.34C249.81,337.4,252.35,339.24,254.55,340.2z"/>
		<path class="st0" d="M256.73,358.51c2.68,0.39,8.32-1.24,8.77-1.38c0.89,3.16,2.06,6.33,3.42,9.47c0.78,1.8,1.61,3.58,2.48,5.36
			c-0.51-0.75-0.98-1.42-1.06-1.51c-2.1-2.43-7.6-5.89-10.91-4.49c-2.39,1.01-3.09,3.87-1.89,6.05c1.22,2.23,4.16,3.33,6.53,3.68
			c2.41,0.35,7.25-0.95,8.52-1.31c0.34,0.68,0.67,1.36,1.01,2.04c1.63,3.25,3.28,6.49,4.79,9.72c0.53,1.14,1.02,2.28,1.51,3.41
			c-0.46-0.67-0.85-1.23-0.92-1.31c-2.1-2.43-7.6-5.89-10.91-4.49c-2.39,1.01-3.09,3.87-1.89,6.05c1.22,2.23,4.16,3.33,6.53,3.68
			c2.3,0.34,6.78-0.82,8.29-1.24c0.47,1.18,0.93,2.36,1.33,3.53c0.25,0.8,0.55,1.56,0.76,2.37c0.23,0.81,0.45,1.61,0.67,2.4
			c0.37,1.54,0.76,3.12,1.08,4.63c0.23,1.05,0.43,2.05,0.64,3.06c-0.52-1.14-1.58-3.34-1.69-3.52c-1.71-2.72-6.62-6.98-10.11-6.09
			c-2.51,0.64-3.64,3.36-2.78,5.7c0.87,2.39,3.6,3.92,5.9,4.62c2.53,0.77,8.13,0.07,8.83-0.03c0.34,1.67,0.65,3.3,0.91,4.85
			c0.55,3.13,0.98,5.96,1.31,8.41h2.35c-0.4-2.54-0.91-5.51-1.56-8.8c-0.33-1.7-0.72-3.51-1.14-5.36c0.42-0.17,2.81-1.13,4.92-2.32
			c1.84,2,6.57,4.33,7.18,4.63c-0.64,1.58-1.28,3.11-1.91,4.55c-1.19,2.73-2.32,5.18-3.34,7.31h2.53c0.86-1.94,1.8-4.1,2.77-6.48
			c0.66-1.6,1.33-3.33,2.01-5.11c0.68,0.14,6.22,1.27,8.8,0.68c2.34-0.53,5.18-1.85,6.23-4.17c1.03-2.27,0.11-5.06-2.35-5.89
			c-3.41-1.15-8.62,2.73-10.53,5.32c-0.11,0.15-1.15,1.95-1.79,3.09c0.27-0.73,0.54-1.43,0.81-2.18c0.54-1.49,1.04-2.98,1.59-4.59
			c0.24-0.79,0.47-1.58,0.71-2.38c0.25-0.79,0.42-1.66,0.64-2.49c0.46-1.95,0.84-3.95,1.17-5.97c1.3,0.47,5.95,2.09,8.35,1.92
			c2.4-0.17,5.4-1.05,6.79-3.18c1.36-2.09,0.87-4.99-1.43-6.18c-3.2-1.65-8.94,1.39-11.22,3.66c-0.14,0.14-1.59,1.95-2.37,2.96
			c0.19-1.22,0.39-2.43,0.54-3.67c0.44-3.57,0.78-7.2,1.13-10.82c0.11-1.11,0.23-2.21,0.34-3.32c0.46,0.17,5.94,2.21,8.64,2.02
			c2.4-0.17,5.4-1.05,6.79-3.18c1.36-2.09,0.87-4.99-1.43-6.18c-3.2-1.65-8.94,1.39-11.22,3.66c-0.17,0.17-2.26,2.78-2.76,3.47
			c0.26-2.43,0.54-4.85,0.91-7.23c0.51-3.28,1.19-6.47,2.08-9.51c0.21,0.08,5.93,2.24,8.69,2.04c2.4-0.17,5.4-1.05,6.79-3.18
			c1.36-2.09,0.87-4.99-1.43-6.18c-3.2-1.65-8.94,1.39-11.22,3.66c-0.18,0.18-2.42,2.99-2.79,3.53c0.05-0.18,0.09-0.37,0.14-0.55
			c0.99-3.23,2.35-6.24,3.77-9c0.82-1.6,1.69-3.09,2.57-4.52c1.02,0.51,5.72,2.79,8.22,2.89c2.4,0.1,5.48-0.45,7.1-2.41
			c1.58-1.92,1.42-4.86-0.74-6.3c-3-1.99-9.04,0.4-11.55,2.41c-0.14,0.11-1.4,1.37-2.31,2.3c0.41-0.64,0.82-1.3,1.22-1.91
			c1.51-2.27,3.03-4.25,4.39-6c0.78-0.99,1.51-1.86,2.19-2.68c1.26-0.02,6.36-0.18,8.59-1.22c2.17-1.02,4.66-2.93,5.19-5.41
			c0.51-2.44-0.98-4.97-3.56-5.25c-3.58-0.39-7.83,4.52-9.14,7.46c-0.11,0.25-1.42,4.43-1.36,4.43c0,0,0.06,0,0.08,0
			c-0.68,0.77-1.4,1.6-2.16,2.53c-1.4,1.72-2.97,3.68-4.53,5.92c-1.57,2.24-3.21,4.72-4.7,7.48c-1.5,2.77-2.93,5.76-4.01,9.03
			c-0.01,0.04-0.02,0.08-0.03,0.11c0.02-1.05-0.03-4.01-0.06-4.23c-0.41-3.19-3.09-9.11-6.63-9.76c-2.55-0.47-4.71,1.53-4.91,4.01
			c-0.21,2.53,1.63,5.07,3.42,6.67c2.02,1.8,7.63,3.55,8.07,3.69c-1,3.12-1.77,6.41-2.37,9.78c-0.34,1.93-0.63,3.88-0.89,5.84
			c-0.01-0.91-0.03-1.73-0.05-1.84c-0.41-3.19-3.09-9.11-6.63-9.76c-2.55-0.47-4.71,1.53-4.92,4.01c-0.21,2.53,1.63,5.07,3.42,6.67
			c1.82,1.62,6.57,3.21,7.83,3.61c-0.09,0.75-0.19,1.5-0.28,2.26c-0.43,3.61-0.85,7.22-1.36,10.75c-0.18,1.24-0.41,2.46-0.62,3.68
			c-0.01-0.81-0.03-1.49-0.04-1.6c-0.41-3.19-3.09-9.11-6.63-9.76c-2.55-0.47-4.71,1.53-4.91,4.01c-0.21,2.53,1.63,5.07,3.42,6.67
			c1.73,1.55,6.11,3.05,7.6,3.54c-0.26,1.24-0.52,2.49-0.83,3.68c-0.23,0.81-0.4,1.6-0.67,2.4c-0.26,0.8-0.51,1.59-0.76,2.37
			c-0.54,1.49-1.09,3.02-1.65,4.46c-0.38,1-0.77,1.95-1.16,2.91c0.19-1.23,0.52-3.66,0.53-3.87c0.05-2.14-0.71-5.61-2.22-8.05
			c0.01-0.32-0.01-0.63-0.06-0.94c-0.39-2.46-2.7-4.28-5.21-3.61c-3.48,0.93-5.69,7.03-5.85,10.25c-0.01,0.19,0.11,2.26,0.21,3.56
			c-0.18-0.76-0.34-1.49-0.53-2.27c-0.36-1.54-0.77-3.06-1.21-4.71c-0.24-0.79-0.48-1.58-0.72-2.38c-0.22-0.8-0.56-1.62-0.84-2.43
			c-0.69-1.88-1.48-3.76-2.31-5.62c1.35-0.32,6.11-1.54,8.03-3.01c1.91-1.46,3.93-3.85,3.91-6.4c-0.02-2.49-2.02-4.64-4.6-4.36
			c-3.58,0.39-6.69,6.09-7.34,9.24c-0.04,0.2-0.25,2.51-0.34,3.78c-0.51-1.12-1.02-2.24-1.57-3.36c-1.6-3.22-3.32-6.43-5.02-9.65
			c-0.52-0.98-1.03-1.97-1.54-2.96c0.48-0.11,6.18-1.43,8.32-3.08c1.91-1.46,3.93-3.85,3.91-6.4c-0.02-2.49-2.02-4.64-4.6-4.36
			c-3.58,0.39-6.69,6.09-7.34,9.24c-0.05,0.24-0.35,3.56-0.38,4.41c-1.13-2.17-2.23-4.34-3.23-6.53c-1.39-3.02-2.58-6.05-3.51-9.08
			c0.22-0.05,6.18-1.4,8.37-3.09c1.91-1.46,3.93-3.85,3.91-6.4c-0.02-2.49-2.02-4.64-4.6-4.36c-3.58,0.39-6.69,6.09-7.34,9.24
			c-0.05,0.25-0.37,3.83-0.38,4.48c-0.06-0.18-0.13-0.36-0.19-0.54c-0.96-3.24-1.48-6.51-1.82-9.58c-0.2-1.79-0.29-3.51-0.34-5.18
			c1.13-0.14,6.31-0.83,8.46-2.13c2.05-1.24,4.33-3.4,4.59-5.93c0.26-2.48-1.5-4.84-4.1-4.84c-3.6-0.01-7.31,5.32-8.31,8.38
			c-0.05,0.17-0.41,1.92-0.66,3.2c-0.01-0.76-0.04-1.54-0.03-2.26c0-2.72,0.18-5.22,0.35-7.42c0.11-1.25,0.23-2.39,0.35-3.44
			c1.04-0.72,5.21-3.66,6.49-5.76c1.25-2.05,2.27-5.01,1.34-7.37c-0.91-2.31-3.56-3.6-5.87-2.41c-3.2,1.65-4.04,8.09-3.51,11.26
			c0.05,0.27,1.25,4.48,1.31,4.44c0,0,0.05-0.03,0.06-0.04c-0.14,1.02-0.28,2.11-0.41,3.3c-0.22,2.21-0.45,4.7-0.51,7.44
			c-0.07,2.73-0.07,5.7,0.21,8.83c0.28,3.14,0.73,6.42,1.64,9.74c0.01,0.04,0.03,0.08,0.04,0.11c-0.57-0.89-2.23-3.33-2.38-3.5
			c-2.1-2.43-7.6-5.89-10.91-4.49c-2.39,1.01-3.09,3.87-1.89,6.05C251.42,357.06,254.36,358.16,256.73,358.51z"/>
		<path class="st0" d="M318.48,341.59c0.06,0.03,1.15-4.2,1.19-4.48c0.44-3.18-0.57-9.6-3.81-11.17c-2.34-1.13-4.95,0.23-5.8,2.57
			c-0.87,2.39,0.23,5.32,1.54,7.34C313.13,338.22,318.48,341.59,318.48,341.59z"/>
	</g>
</g>
<g id="Floor">
	<line class="st2" x1="55.57" y1="422.18" x2="704.2" y2="422.18"/>
</g>
<g id="Lines">
</g>
<g id="Text_2">
	<g>
		<path class="st3" d="M116.62,341.63L61.58,156.31h45.54l33.26,126.32l33.26-126.32h41.58l-55.04,185.32v91.87h-43.56V341.63z"/>
		<path class="st3" d="M223.14,222.83c0-44.35,23.36-69.69,66.13-69.69s66.13,25.34,66.13,69.69v144.14
			c0,44.35-23.36,69.69-66.13,69.69s-66.13-25.34-66.13-69.69V222.83z M266.69,369.74c0,19.8,8.71,27.32,22.57,27.32
			s22.57-7.52,22.57-27.32V220.06c0-19.8-8.71-27.32-22.57-27.32s-22.57,7.52-22.57,27.32V369.74z"/>
		<path class="st3" d="M448.84,279.06h60.98v87.91c0,44.35-22.17,69.69-64.94,69.69c-42.77,0-64.94-25.34-64.94-69.69V222.83
			c0-44.35,22.17-69.69,64.94-69.69c42.77,0,64.94,25.34,64.94,69.69v26.93h-41.18v-29.7c0-19.8-8.71-27.32-22.57-27.32
			c-13.86,0-22.57,7.52-22.57,27.32v149.68c0,19.8,8.71,26.93,22.57,26.93c13.86,0,22.57-7.13,22.57-26.93v-51.08h-19.8V279.06z"/>
		<path class="st3" d="M678.51,433.49h-43.95l-7.52-50.29h-53.46l-7.52,50.29h-39.99l44.35-277.18h63.75L678.51,433.49z
			 M579.12,345.59h41.97L600.1,205.41L579.12,345.59z"/>
	</g>
</g>
<g id="Text_1">
</g>
<g id="Mandala">
</g>
<g id="Character_4">
	<g>
		<path class="st4" d="M621.08,349.92c7.16,16.3,12.73,33.41,21.89,48.68c10.77,17.97,26.16,32.77,42.83,45.46
			c-7.41-1.24-14.81-2.48-22.22-3.72c-0.85-0.14-1.8-0.34-2.3-1.04c-0.7-0.96-0.21-2.29-0.13-3.48c0.28-4-4.05-6.52-7.59-8.4
			c-8.9-4.74-16.82-11.81-21.1-20.93c-1.59-3.39-2.67-7.02-4.38-10.35c-1.45-2.81-3.33-5.38-5.33-7.83
			c-8.46-10.43-19.28-19.57-23.69-32.26c-4.7-0.6-8.11,4.23-10.22,8.47c-3.29,6.6-6.3,13.37-10.19,19.64
			c-7.14,11.51-15.63,20.76-20.92,33.23c-2.12,5-4.99,10.84-5.4,16.25c-0.18,2.34-0.24,4.83-1.55,6.78
			c-2.54,3.76-8.07,3.46-12.54,2.67c3.2-3.05,5.09-7.22,6.39-11.44c3.63-11.78,3.33-24.86,9.29-35.66
			c2.93-5.31,7.22-9.74,10.32-14.95c6.45-10.87,7.18-24.08,10.75-36.21c1.81-6.14,4.5-12.25,9.24-16.55
			c9.13-8.29,30.65-1.73,36.6,8.47C624.04,342.25,618.52,344.1,621.08,349.92z"/>
		<path class="st5" d="M649.83,425.25c3.48-0.16,7.25-1.1,10.89-3.47c-6.7-7.11-12.73-14.8-17.76-23.18
			c-9.15-15.27-14.72-32.38-21.89-48.68c-2.56-5.82,2.96-7.68-0.25-13.17c-5.95-10.21-27.47-16.76-36.6-8.47
			c-4.74,4.3-7.43,10.41-9.24,16.55c-3.57,12.13-4.3,25.34-10.75,36.21c-3.09,5.21-7.39,9.65-10.32,14.95
			c-4.28,7.75-5.33,16.67-6.93,25.45c2.16,0.52,5.08,0.87,8.75,0.56c0.67-1.59,1.36-3.14,1.99-4.61
			c5.29-12.47,13.78-21.72,20.92-33.23c3.89-6.27,8.3-13.82,11.47-19.9c1.39-2.67,4.23-8.82,8.93-8.22
			c4.41,12.68,15.23,21.83,23.69,32.26c1.99,2.46,3.88,5.02,5.33,7.83c1.72,3.33,2.79,6.96,4.38,10.35
			C636.13,414.31,642.48,420.63,649.83,425.25z"/>
		<line class="st2" x1="600.16" y1="354.23" x2="612.25" y2="352.96"/>
		<g>
			<g>
				<g>
					<path class="st4" d="M704.98,326.07c0,0-4.97-5.56-7.31-5.56s-4.39,0.59-5.85,0.29c-1.46-0.29-2.63-3.8-4.68-2.93
						c-2.05,0.88-2.93,4.39-2.93,4.39s-8.48,1.76-9.36,3.51s0.88,6.44,0.88,6.44s-1.17,0.59-4.1,0c-2.93-0.59-3.51-6.14-3.51-7.02
						c0-0.88,0.59-9.65,0-11.41c-0.59-1.76-3.51-8.19-3.51-8.19l-3.22-23.11c0,0-1.17-11.7-1.17-16.68s0.59-18.72,0.59-18.72
						s4.39-4.97,4.97-6.14c0.59-1.17,2.05-4.68,2.05-6.14s-0.65-2.33-1.37-1.19c-0.71,1.14-2.42,4.71-2.42,4.71v-10.98
						c0,0-0.86-0.57-1.28,0.29c-0.43,0.86-0.71,6.99-0.71,6.99h-0.57l-0.86-8.42c0,0-1.43-1.14-1.57,0.71
						c-0.14,1.85-0.29,8.42-0.29,8.42l-0.71-0.14c0,0-1.14-5.42-1.57-6.42c-0.43-1-1.43,0.14-1.43,1.14s1,6.56,1,6.56
						s-1.71-2.42-1.85-2.85c-0.14-0.43-0.86-0.57-0.86,0.86s1,4.42,1,4.42s0.29,5.28,0.86,6.13c0.57,0.86,0.57,3.57,0.57,3.57
						s-3.57,18.26-3.71,30.81c-0.14,12.55,1.85,23.68,1.85,24.68c0,1,0,17.54,0,17.54s-15.86,0.67-22.96,3.41
						c-4.95,1.9-12.15,2.88-19.12,2.74l-2.46-0.28c0,0-1.64,4.37-1.64,10.1c0,5.73,0.82,11.47,2.18,11.47
						c1.37,0,17.75,1.91,26.22,5.19c8.47,3.28,20.48,6.28,20.48,6.28s-0.55,12.56,0,21.57c0.55,9.01,4.37,30.86,4.92,32.77
						s0.55,6.01,1.09,7.65c0.55,1.64,0.82,5.19,1.91,6.01c1.09,0.82,4.1,5.73,4.1,5.73l1.37-0.55l-2.46-3.55c0,0,7.1,5.73,7.65,6.83
						c0.55,1.09,1.91,0.55,1.91-0.27c0-0.82-4.37-7.37-5.73-8.74c-1.37-1.37-4.37-6.83-4.37-6.83l0.82-40.14c0,0,0-7.92,0-13.38
						c0-5.46,2.18-8.19,2.18-12.84c0-4.64,0.82-10.1,0.82-10.1s6.55-1.37,8.47-0.82c1.91,0.55,5.73,4.37,7.65,4.1
						c1.91-0.27,15.29-1.64,17.75-10.38C707.13,328.83,704.98,326.07,704.98,326.07z"/>
					<line class="st2" x1="653.9" y1="321.6" x2="659.63" y2="313.21"/>
					<line class="st2" x1="656.61" y1="360.51" x2="660.91" y2="369.5"/>
				</g>
				<path class="st2" d="M664.03,238.31c0,0-4.42,1.77-4.14,4.77"/>
			</g>
			<path class="st6" d="M675.45,330.74l2.73,6.55l-4.45-4.8C673.74,332.5,675.24,334.24,675.45,330.74z"/>
			<path class="st2" d="M683.37,324.19c0,0,0.27,1.91,1.91,3.28"/>
			<ellipse class="st7" cx="693.48" cy="326.1" rx="1.37" ry="0.82"/>
			<path class="st2" d="M697.3,323.37c0,0,2.18,2.46-0.27,4.92"/>
		</g>
		<path class="st8" d="M670.6,346.26c-2.8,0.27-7.56,0.61-9.07,0.05c-2.18-0.82-8.19-4.1-8.19-10.38c0-5.86,8.07-9.1,15.14-8.18
			c-0.26-1.12-0.35-2.11-0.36-2.49c-1.98-0.98-6.73-2.94-14.21-3.65c0,0-12.38,0.53-20.16,2.53c-1.69,5.62-3.52,15.83-0.69,29.06
			c1.1,0.33,2.14,0.67,3.08,1.04c1.27,0.49,2.63,0.98,4.01,1.45l-0.18-0.36c0,0,10.67,5.32,17.77,1.77
			c4.97-2.48,9.48-7.73,12.58-8.11C670.4,347.93,670.51,346.99,670.6,346.26z"/>
		<path class="st6" d="M703.85,332.38c0,0-3.28-1.09-4.64,0.55c-1.37,1.64-4.37,4.92-4.37,4.92s-3.55-1.37-3.28,0.82
			c0.27,2.18,3.55,1.64,1.37,4.1c-2.18,2.46-5.46,1.37-6.28,0c-0.82-1.37-2.46-3.28-2.46-3.28s-1.91-2.18-5.46,0
			c-3.55,2.18-4.1,4.64-3.28,4.92c0.82,0.27,2.46,0.82,2.46,0.82s-3.82,8.74-3.82,10.92c0,2.18,4.37,1.09,4.37,1.09
			s-2.46,6.83,2.73,8.47c5.19,1.64,7.65-1.64,7.65-1.64s-1.91,4.1,1.91,4.1c3.82,0,4.64-0.27,4.64-0.27s2.46,3.28,6.83,2.18
			c4.37-1.09,8.19-6.01,8.47-7.1c0.27-1.09,1.09-3.82,1.09-3.82s3,5.19,4.1,0.82c1.09-4.37-0.55-12.56-0.55-12.56
			s5.73-3.55,5.73-5.19c0-1.64-6.28-9.29-6.28-9.29s4.92-1.09,2.46-4.64c-2.46-3.55-8.47-2.46-8.47-2.46s1.09-3-0.82-3
			c-1.91,0-4.64,1.37-4.64,1.37S703.58,329.38,703.85,332.38z"/>
	</g>
</g>
<g id="Character_3">
	<g>
		<path class="st4" d="M446.38,420.16c0,0-0.97,11.14-0.97,14.05c0,2.91,0,3.88,0,3.88s8.72-0.36,10.29-0.12
			c1.57,0.24,7.02,3.27,8.36,4s2.18,1.09,1.45,1.45c-0.73,0.36-7.75-0.36-7.75-0.36l-1.04,1.06c0,0-16.04-4.08-16.52-4.57
			s-3.88-16.47-3.51-19.01c0.36-2.54,1.33-6.42,1.33-6.42L446.38,420.16z"/>
		<path class="st4" d="M419.37,405.28l-10.31-4.94c0,0-14.17,13.59-21.74,22.51c-7.57,8.93-15.72,14.17-18.44,14.75
			c-2.72,0.58-7.76-0.97-7.76-4.27c0-3.3,0.39-9.7,0.97-11.06c0.58-1.36,0.97-14.56,4.85-26.01c3.88-11.45,10.48-20.77,13-26.2
			c2.52-5.43,5.63-13.97,7.37-16.11c1.75-2.13,6.21-3.69,7.57-3.88c1.36-0.19,3.3-0.19,3.3,1.94s-1.55,3.69-1.55,3.69
			s-3.11,9.51-4.08,11.64c-0.97,2.13-1.55,4.66-1.75,7.37c-0.19,2.72-7.37,2.13-7.37,2.13s-2.33,6.21-3.49,11.84
			c-1.16,5.63-1.36,12.81-1.36,12.81s11.64-21.74,16.5-27.75c4.85-6.02,12.23-9.12,12.23-9.12s-6.6-24.65-6.21-32.22
			c0.39-7.57,0.39-9.32,0.39-10.87c0-1.55,7.76-32.6,7.76-39.79s2.72-22.71,3.11-24.45c0.39-1.75,1.55-3.69,1.55-6.21
			c0-2.52,1.75-1.94,2.72-0.58c0.97,1.36,2.33,7.18,2.33,10.67c0,3.49-0.19,5.63-0.19,5.63s3.3,5.63,2.52,7.96
			c-0.78,2.33-3.88,1.36-4.08,2.91c-0.19,1.55-0.78,6.02,1.36,15.53c2.13,9.51-0.19,20.77-0.97,24.07c-0.78,3.3-2.13,4.85-1.94,8.15
			c0.19,3.3,3.49,10.87,4.85,14.17c1.36,3.3,10.09,19.99,10.09,19.99s6.79,6.99,6.79,15.14s-1.94,14.36-1.94,14.36l6.79,3.3
			l-18.05,14.56L419.37,405.28z"/>
		<g>
			<path class="st5" d="M435.46,389.09c0,0,1.94-6.21,1.94-14.36s-6.79-15.14-6.79-15.14s-8.73-16.69-10.09-19.99
				c-1.36-3.3-4.66-10.87-4.85-14.17c-0.19-3.3,1.16-4.85,1.94-8.15c0.78-3.3,3.11-14.56,0.97-24.07
				c-0.98-4.36-1.38-7.65-1.52-10.09h-7.86c-0.74,9.07-7.69,36.96-7.69,38.43c0,1.55,0,3.3-0.39,10.87
				c-0.39,7.57,6.21,32.22,6.21,32.22s-7.37,3.11-12.23,9.12c-4.85,6.02-16.5,27.75-16.5,27.75s0.19-7.18,1.36-12.81
				c0.54-2.59,1.31-5.29,2-7.46c-3.26,0.47-5.4-1.38-6.57-2.87c-2.82,4.95-6.11,11.04-8.44,17.9c-3.88,11.45-4.27,24.65-4.85,26.01
				c-0.58,1.36-0.97,7.76-0.97,11.06c0,3.3,5.05,4.85,7.76,4.27c2.72-0.58,10.87-5.82,18.44-14.75
				c7.57-8.93,21.74-22.51,21.74-22.51l10.31,4.94l4.83,1.66l18.05-14.56L435.46,389.09z"/>
			<g>
				<path class="st2" d="M407.32,364.63c0,0,6.6-4.85,12.81-4.85"/>
				<path class="st2" d="M409.45,365.6"/>
				<path class="st2" d="M408.68,364.63c0,0,11.45-2.33,15.72,6.02"/>
				<path class="st2" d="M368.43,422.53c-0.43,1.28-0.74,2.44-0.9,3.44"/>
				<path class="st2" d="M378.59,401.51c0,0-6.15,10.61-9.32,18.72"/>
			</g>
		</g>
		<path class="st4" d="M508.17,384c0,0,1.6,4.81,0.23,7.78c-1.37,2.98-2.29,5.72-1.6,7.1c0.69,1.37,0.92,1.83,0.23,3.2
			c-0.69,1.37-1.83,1.6-1.83,1.6s-2.75,6.18-5.72,7.1c-2.98,0.92-8.01-2.75-8.01-2.75s-8.93,4.12-13.27,6.41
			c-4.35,2.29-15.11,7.55-20.83,8.7c-5.72,1.14-13.27-1.83-22.66-7.32c-9.38-5.49-15.33-10.53-15.33-10.53s9.61-10.53,13.96-11.9
			c4.35-1.37,5.72-1.83,9.38-1.83c3.66,0,12.59,3.66,16.94,4.58c4.35,0.92,13.5-0.23,16.02-0.23s6.18,0,6.18,0s2.75-7.78,5.49-11.21
			c2.75-3.43,9.84-5.26,12.59-5.26C502.68,379.42,508.17,384,508.17,384z"/>
		<path class="st8" d="M491.01,393.84c0,0,4.58,2.06,5.26-1.14c0.69-3.2-1.83-5.04,1.14-7.32s11.21,0.69,11.21,0.69
			s0.69-8.7-7.32-11.21c-4.91-1.54-11.21-2.52-15.79,0.23c-4.58,2.75-8.24,6.64-9.15,12.36c-0.92,5.72,1.6,9.84,4.81,10.76
			c3.2,0.92,7.32-2.52,7.78-3.2C489.41,394.29,491.01,393.84,491.01,393.84z"/>
		<path class="st4" d="M492.38,394.75c0,0-1.6-6.64-4.81-4.12c-3.2,2.52-1.83,8.01,1.37,8.47"/>
		<path class="st8" d="M495.13,373.47c0,0,5.04-3.66,2.52-6.64c-2.52-2.98-13.73-0.23-16.71,2.75c-2.98,2.98-0.69,5.04,4.58,5.49
			C490.78,375.53,495.13,373.47,495.13,373.47z"/>
		<path class="st2" d="M499.93,402.08c0,0,1.14,1.83,3.43,2.52"/>
		<path class="st7" d="M504.51,396.35c-0.11,0.81-0.56,1.43-0.99,1.37c-0.44-0.06-0.7-0.77-0.59-1.58c0.11-0.81,0.56-1.43,0.99-1.37
			C504.35,394.83,504.62,395.53,504.51,396.35z"/>
		<path class="st2" d="M502.45,392.01c0,0,3.2-1.14,4.35,0.92"/>
		<polygon class="st6" points="491.47,408.03 488.03,404.82 488.49,409.4 		"/>
		<path class="st8" d="M481.17,400.93c-0.28-2.81-1.49-4.28-2.81-5.04c-0.9,0-1.85,0-2.68,0c-2.52,0-11.67,1.14-16.02,0.23
			c-3.52-0.74-10.04-3.28-14.34-4.22c-11.78,4.14-16.91,13.54-18.9,18.64c2.3,1.58,5.09,3.4,8.29,5.27
			c9.38,5.49,16.94,8.47,22.66,7.32c4.97-0.99,13.75-5.1,18.81-7.66C478.3,412.17,481.7,406.22,481.17,400.93z"/>
		<g>
			<path class="st4" d="M477.32,406.67c1.03-3.68,0-8.36-3.46-10.55c-3.38-2.15-8.74-0.83-11.46-1.59c0.71,0.2-9.05-2.56-15.56-3.2
				c-6.17-0.61-13.5-0.92-14.88,1.14c-1.37,2.06-1.37,23.12,0.69,33.19s5.72,19,6.87,19.68c1.14,0.69,4.32,0.84,5.04,0.92
				c8.07,0.84,9.64,0.78,10.3,1.14c0.55,0.31,5.7-0.62,5.7-0.62s-1.33-1.2-2.26-1.9c-3.38-2.54-5.2-2.45-7.1-3.24
				c-1.95-0.82-5.25-0.41-8.74-0.82c-0.68-0.08-1.78-7.61-1.78-12.41c0-4.81,1.6-21.29,1.6-21.29s5.04,2.06,8.24,2.29
				c3.2,0.23,7.32,0.69,7.32,0.69s2.29,2.75,9.84,2.52c3.37-0.1,7.19-1.11,8.97-4.25C476.92,407.84,477.15,407.27,477.32,406.67z"/>
			<path class="st2" d="M442.26,407.11c0,0-3.66-4.35-4.35-6.41"/>
		</g>
	</g>
</g>
<g id="Character_2">
	<g>
		<g>
			<path class="st4" d="M327.39,341.74c0,0-12.3-4.29-15.1-5.78c-2.8-1.49-4.47-1.3-5.03-2.24c-0.56-0.93-3.54-5.41-6.15-5.97
				c-2.61-0.56-8.02,1.68-8.76,3.17c-0.75,1.49-0.75,8.95-0.75,8.95s3.17,0.56,5.78,1.68c2.61,1.12,6.52-0.56,7.64-0.93
				c1.12-0.37,8.95,6.71,12.86,9.88c3.92,3.17,10.44,7.83,10.44,7.83l0.93,4.85c0,0,7.27,3.36,8.95,1.31
				c1.68-2.05,3.17-7.83,3.17-10.44c0-2.61-0.75-5.78-4.29-8.39C333.54,343.05,327.39,341.74,327.39,341.74z"/>
			<path class="st2" d="M297,336.52c0,0,2.61-0.19,3.73-0.56c1.12-0.37,3.36,0.37,3.36,0.37"/>
		</g>
		<g>
			<path class="st4" d="M338.41,361.13c0,0-2.53,0.56-4.51,0.56c-1.97,0-5.91-3.94-9.29-4.22c0,0-2.82-5.35-9.57-1.13
				c-6.76,4.22-9.57,7.88-9.57,15.49s5.91,12.39,10.7,14.92c4.79,2.53,13.8,0,16.33-1.69C335.03,383.38,338.41,361.13,338.41,361.13
				z"/>
			<path class="st5" d="M315.04,356.35c-6.76,4.22-9.57,7.88-9.57,15.49s5.91,12.39,10.7,14.92c3.48,1.84,9.2,1,13.03-0.24
				c1.17-3.73-0.64-7.36-0.64-7.36s-4.51,1.97-6.76-1.69c-2.25-3.66,4.51-3.38,4.51-3.38s0.84,0,1.41-4.79
				c0.56-4.79-3.1-11.83-3.1-11.83S321.8,352.12,315.04,356.35z"/>
			<path class="st6" d="M311.1,378.59c0,0-10.42-5.91-10.14-1.13c0.28,4.79,3.94,3.94,3.94,3.94s-7.32,3.94-4.22,5.07
				c3.1,1.13,5.35-0.84,5.35-0.84s-1.41,4.51,1.41,5.63c2.82,1.13,3.38-3.38,3.38-3.38s1.69,3.94,4.51,1.69
				c2.82-2.25,0.84-5.63,0.84-5.63s3.1-4.51,2.82-5.63c-0.28-1.13-3.94,0.56-3.94,0.56s-1.97-8.17-3.94-6.76
				C309.13,373.52,311.1,378.59,311.1,378.59z"/>
			<path class="st2" d="M317.01,358.04c0,0,5.35,10.14,2.25,18.02"/>
			<path class="st2" d="M321.24,358.6c0,0,3.94,7.32,0.84,13.52"/>
			<path class="st7" d="M331.67,362.71c0.84,0.15,1.46,0.64,1.38,1.1c-0.08,0.46-0.83,0.71-1.67,0.56c-0.84-0.15-1.46-0.64-1.38-1.1
				C330.08,362.81,330.82,362.56,331.67,362.71z"/>
			<path class="st2" d="M329.34,360.17c0,0-2.89,3.01,0.69,5.09"/>
		</g>
		<g>
			<g>
				<path class="st4" d="M324.99,386.45c0,0-6.73,2.59-9.06,9.06c-2.33,6.47-5.69,17.34-7.5,19.92c-1.81,2.59-5.95,3.11-7.25,3.88
					c-1.29,0.78-2.07,0.78-3.36,0.78c-1.29,0-3.62-2.85-3.62-2.85s-3.11-10.09-11.13-12.16c-8.02-2.07-17.08-2.07-17.08-2.07
					s-7.76-10.09-9.32-13.46c-1.55-3.36-6.47-11.13-6.47-11.13s11.9-3.62,16.3-10.87c4.4-7.25,12.94-16.04,13.71-16.3
					c0.78-0.26,1.55-0.78,1.55-0.78s4.66,3.62,7.5-0.52c2.85-4.14,3.36-9.06,3.62-9.83c0.26-0.78,6.21-4.14,7.76-8.02
					c1.55-3.88-0.26-3.36-2.85-3.62c-2.59-0.26-9.32,2.59-9.32,2.59s3.88-8.8,6.21-12.16c2.33-3.36,2.85-6.73,2.85-7.5
					s-5.69-1.55-8.28,0.52c-2.59,2.07-13.2,17.08-16.3,20.44c-3.11,3.36-23.03,18.89-31.05,24.32c-8.02,5.43-28.98,13.46-29.5,18.37
					c-0.52,4.92,2.07,6.21,4.66,12.42c2.59,6.21,8.28,20.18,21.22,31.31c12.94,11.13,19.92,17.34,24.07,20.44
					c4.14,3.11,25.62,5.43,33.12,4.66c7.5-0.78,18.11,0,25.36-2.85c7.25-2.85,10.87-8.54,10.87-8.54s5.95-0.78,6.99-10.35
					c1.04-9.57-1.55-25.36-1.55-25.36S337.67,382.57,324.99,386.45z"/>
				<path class="st4" d="M302.41,327.01c0,0-2.61,3.54-2.61,4.1c0,0.56,0.75,1.68,1.49,0.75c0.75-0.93,2.61-3.17,2.61-4.1
					C303.9,326.83,303.16,326.45,302.41,327.01z"/>
				<path class="st4" d="M302.41,327.01c0,0-1.49-1.86-2.8-0.37c-1.31,1.49-3.17,4.85-1.68,5.03
					C299.43,331.86,302.41,327.01,302.41,327.01z"/>
				<path class="st4" d="M299.24,325.9c0,0-1.12-2.42-2.42-0.75c-1.3,1.68-2.61,6.9-1.12,5.97
					C297.19,330.18,299.24,325.9,299.24,325.9z"/>
				<path class="st4" d="M293.46,325.71c0,0-1.49-0.75-1.3,2.24c0.19,2.98,2.42,2.98,2.42,1.49
					C294.58,327.95,294.21,324.4,293.46,325.71z"/>
			</g>
			<path class="st2" d="M296.53,423.2c0,0,3.36,1.55,8.28-1.04"/>
		</g>
		<path class="st8" d="M331.72,432.51c0,0,5.95-0.78,6.99-10.35c0.68-6.25-0.19-15.13-0.88-20.56c-2.04,5.98-4.95,12.41-9.48,14.35
			c-5.43,2.33-12.94-1.29-15.27-6.21c-0.54-1.13-0.7-2.58-0.64-4.14c-1.52,4.38-3.01,8.39-4.02,9.83c-0.83,1.18-2.14,1.93-3.44,2.47
			c3.72,15.86,13.25,20.3,19.24,21.49C329.22,436.43,331.72,432.51,331.72,432.51z"/>
		<path class="st5" d="M296.91,419.77c-1.25-0.74-2.7-2.52-2.7-2.52s-3.11-10.09-11.13-12.16c-8.02-2.07-17.08-2.07-17.08-2.07
			s-7.76-10.09-9.32-13.46c-1.55-3.36-6.47-11.13-6.47-11.13s11.9-3.62,16.3-10.87c2.6-4.28,6.64-9.1,9.67-12.38
			c-4.39-3.12-3.2-7.29-3.2-7.29c-5.27-3.2-7.38-6.8-8.15-8.53c-7.39,5.95-17.67,13.78-22.9,17.33
			c-8.02,5.43-28.98,13.46-29.5,18.37c-0.52,4.92,2.07,6.21,4.66,12.42c2.59,6.21,8.28,20.18,21.22,31.31
			c12.94,11.13,19.92,17.34,24.07,20.44c4.14,3.11,25.62,5.43,33.12,4.66c0.04,0,0.09-0.01,0.13-0.01
			C292.67,431.52,295.04,423.61,296.91,419.77z"/>
		<g>
			<path class="st2" d="M272.98,347.9l6.99-6.99c0,0,4.92,4.14,7.5,0c2.59-4.14,0.43-9.21,0.43-9.21"/>
			<path class="st2" d="M260.13,403.59c1.5,1.38,2.5,2.27,2.5,2.27"/>
			<path class="st2" d="M262.41,359.41c-0.38,0.49-0.74,0.96-1.07,1.43c-3.88,5.43-9.83,12.16-14.23,14.23s-11.9,2.59-11.9,2.59
				s8.28,7.76,11.9,12.68c2.16,2.93,7.26,7.89,11.03,11.41"/>
			<path class="st2" d="M272.98,347.9c0,0-4.95,4.79-8.93,9.49"/>
			<path class="st2" d="M267.55,406.38c0,0,10.87-1.55,18.63,8.8"/>
		</g>
		<path class="st4" d="M322.41,398.36c0,0-1.55-9.57,8.28-19.15l6.47-23.55c0,0-5.95-5.95-12.16-14.75
			c-6.21-8.8-18.89-18.89-18.89-18.89s-6.21-0.78-7.76-1.81c-1.55-1.04-2.85-3.11-3.62-3.62c-0.78-0.52-4.14-2.59-2.59-3.11
			c1.55-0.52,4.14,1.29,4.14,1.29l2.33,0.78l1.04-0.78l-2.59-2.33l-3.36-0.52c0,0-4.92-0.52-2.85-1.29s4.14-1.55,7.25-2.07
			c3.11-0.52,5.43,0.52,7.5,2.07c2.07,1.55,8.54,10.87,9.32,11.9c0.78,1.04,20.7,11.13,27.17,16.82c6.47,5.69,9.83,7.25,9.83,11.39
			c0,4.14-7.25,27.17-12.16,38.56c-4.92,11.39-6.47,17.34-6.47,17.34"/>
	</g>
</g>
<g id="Character_1">
	<g>
		<path class="st5" d="M145.05,200.2c0,0,0.56-2.62-3.37-4.5c-3.94-1.87-13.5,0.19-17.24,5.25c-3.75,5.06-5.44,12.75-5.44,17.06
			c0,4.31-0.37,12.56-0.37,12.56s9,1.31,15.93,2.81c6.94,1.5,22.49-6,22.49-6s-2.25-17.81-6.75-24.18
			C145.8,196.82,145.05,200.2,145.05,200.2z"/>
		<g>
			<path class="st5" d="M132.68,230.94c0,0-0.19,8.62-0.37,9.18c-0.19,0.56-4.12,2.62-8.43,3.56c-4.31,0.94-9.93-0.75-13.5,2.06
				c-3.56,2.81-3.37,8.25-3.37,9.18c0,0.94-3.37,24.93-3.37,24.93l9.56-0.19l2.81-6.56c0,0,2.25,3.56,2.25,7.5
				c0,3.94-0.19,10.12-2.62,15.93c-2.44,5.81-3.19,10.87-3.19,10.87s-22.49,14.25-28.68,19.49c-6.19,5.25-14.06,10.68-14.06,14.81
				c0,4.12,1.31,9.56,3.94,9.56s40.11-15.18,45.55-16.87c5.44-1.69,13.87-4.12,14.62-4.12s3.37,0.56,4.12,1.5
				c0.75,0.94,1.69,8.06,1.69,9.75c0,1.69,1.31,32.24,1.31,32.24s-0.56-0.94,0.19,0.75c0.75,1.69-1.12,14.99-1.12,21.37
				c0,6.37,1.12,31.3,0.37,33.18c-0.75,1.87-1.12,12.56-1.12,12.56s-0.75,2.44,1.5,2.44c2.25,0,8.62,0,8.62-0.56
				c0-0.56-4.5-10.68-4.5-13.31c0-2.62,9.75-26.8,10.87-34.68c1.12-7.87-1.12-12.75,0.37-18.93c1.5-6.19,10.31-31.3,9.93-46.48
				c-0.37-15.18-7.12-32.43-8.43-35.43c-1.31-3-4.12-10.12-4.12-10.12l1.5-11.81l14.25,6.94l1.12,0.56c0,0-3.75-16.31-3.75-20.24
				c0-3.94,0.94-13.87-3.75-16.31c-2.08-1.08-9.93-0.19-12.56-0.75s-5.62-3.37-5.62-3.37l-0.37-8.81L132.68,230.94z"/>
			<g>
				<path class="st2" d="M118.52,311.72c0,0,5.7,3.05,10.49,10.8"/>
				<path class="st2" d="M145.31,322.32c-0.64,0.8-1.16,1.51-1.48,2.06"/>
				<path class="st2" d="M153.7,312.96c0,0-3.66,3.8-6.61,7.22"/>
			</g>
		</g>
		<path class="st4" d="M162.85,243.68c-2.08-1.08-9.93-0.19-12.56-0.75s-5.62-3.37-5.62-3.37l-0.37-8.81l-11.62,0.19
			c0,0-0.19,8.62-0.37,9.18c-0.19,0.56-4.12,2.62-8.43,3.56c-4.31,0.94-9.93-0.75-13.5,2.06c-3.56,2.81-3.37,8.25-3.37,9.18
			c0,0.94-3.37,24.93-3.37,24.93l9.56-0.19l2.81-6.56c0,0,1.31,2.09,1.93,4.83l18.73-9.66l18.03,6.74l0.29-2.28l14.25,6.94
			l1.12,0.56c0,0-3.75-16.31-3.75-20.24C166.6,256.05,167.54,246.12,162.85,243.68z"/>
		<path class="st6" d="M132.18,233.1c0,0,5.64,5.84,6.81,5.45c1.17-0.39,5.25-3.5,5.25-3.5v-3.7l-11.56-0.42L132.18,233.1z"/>
		<path class="st8" d="M157.23,259.99c0,0-3-11.25-4.31-14.06c-0.58-1.24-1.04-2.18-1.39-2.85c-0.48-0.03-0.9-0.08-1.24-0.15
			c-0.72-0.16-1.43-0.38-2.08-0.63c0.27,1.47,0.2,3.3,0.2,6.44c0,4.31-3.37,6.56-9.93,6.56c-6.56,0-12.56-1.69-12.93-4.12
			c-0.26-1.72,1.43-6.23,2.45-8.74c-1.06,0.41-2.25,0.79-3.49,1.09c-1.77,3.97-5.81,13.03-7.4,16.65
			c-2.06,4.69-2.06,10.5-1.69,11.43c0.09,0.22,0.21,0.95,0.36,1.97l0.2-0.47c0,0,2.25,3.56,2.25,7.5c0,3.94-0.19,10.12-2.62,15.93
			c-1.56,3.72-2.43,7.12-2.85,9.1c3.82,2.07,13.08,6.04,27.78,5.9c8.59-0.08,15.53-3.32,20.65-6.96c-1.57-4.97-3.05-8.66-3.59-9.91
			c-1.31-3-4.12-10.12-4.12-10.12l1.5-11.81L157.23,259.99z"/>
		<g>
			<path class="st4" d="M148.8,218c0,0,1.31-2.62,2.44,0.19c1.12,2.81-2.06,5.62-2.62,5.81c-0.56,0.19-1.12,0.19-1.12,0.19
				L148.8,218z"/>
			<path class="st4" d="M141.86,202.26c0,0-6.37,1.31-8.06,4.69c-1.69,3.37-0.19,6-2.81,8.43c-2.62,2.44-6.56,2.06-6.56,2.06
				s-0.56,3,0.19,4.69c0.75,1.69,2.44,2.06,2.44,2.06s2.81,5.25,3.56,6.37c0.75,1.12,6.19,4.87,8.62,4.87
				c2.44,0,8.25-5.62,8.25-6.75c0-1.12,1.87-10.5,1.87-14.25S141.86,202.26,141.86,202.26z"/>
			<path class="st2" d="M131.15,218.05c0,0,2.44,1.15,3.74-0.14"/>
			<path class="st2" d="M141.34,218.05c0,0,2.44,1.15,3.74-0.14"/>
			<path class="st2" d="M141.49,214.63c0,0,3-0.56,4.69,1.31"/>
			<path class="st2" d="M135.49,214.44c0,0-2.06-0.56-3.56,0.56"/>
			<path class="st2" d="M137.55,223.44c0,0,1.12,1.12,3,0"/>
			<path class="st2" d="M136.99,227.75c0,0,3.37,1.12,4.31-0.19"/>
		</g>
		<path class="st4" d="M137.74,241.99c0,0-3.56,8.43-3.56,10.31c0,1.87-0.94,6.75-0.94,6.75s1.12,2.06-20.81,13.31
			c-1.8,0.92-8.43,3.75-9,6.37c-0.56,2.62,0,7.5,1.87,8.81c1.87,1.31,5.62,0.94,8.62-1.87c1.9-1.79,18.37-17.99,19.49-19.68
			c1.12-1.69,3.19-2.44,3.94-5.25c0.75-2.81,0.37-9.75,0.37-9.75V241.99z"/>
		<path class="st4" d="M138,241.99c0,0,3.56,8.43,3.56,10.31c0,1.87,0.94,6.75,0.94,6.75s-1.12,2.06,20.81,13.31
			c1.8,0.92,8.43,3.75,9,6.37c0.56,2.62,0,7.5-1.87,8.81c-1.87,1.31-5.62,0.94-8.62-1.87c-1.9-1.79-18.37-17.99-19.49-19.68
			c-1.12-1.69-3.19-2.44-3.94-5.25c-0.75-2.81-0.37-9.75-0.37-9.75V241.99z"/>
		<path class="st5" d="M71.87,337.43c0,0-4.23,3.02-4.44,5.04c-0.2,2.02,1.81,8.27,2.82,8.87c1.01,0.6,17.54,0.4,25.81-1.41
			c8.27-1.81,28.22-6.05,32.05-6.05c3.83,0,5.24,0.4,5.24,0.4s0.6,2.82,3.83,5.64c3.23,2.82,3.23,8.67,3.23,8.67
			s3.02-1.01,3.02-2.22s1.41-7.86,0-11.09c-0.75-1.7-2.22-5.24-2.02-7.66c0.2-2.42-1.41-4.84-4.03-3.43
			c-2.62,1.41-16.13,2.42-22.18,2.42c-6.05,0-20.77-2.42-27.01-0.81"/>
		<path class="st4" d="M137.19,349.93c3.23,2.82,3.23,8.67,3.23,8.67s3.02-1.01,3.02-2.22s1.41-7.86,0-11.09
			c-0.75-1.7-2.22-5.24-2.02-7.66c0.2-2.42-1.41-4.84-4.03-3.43c-2.62,1.41-16.13,2.42-22.18,2.42c-0.13,0-0.27,0-0.4,0v9.4
			c6.08-1.19,11.5-2.14,13.31-2.14c3.83,0,5.24,0.4,5.24,0.4S133.97,347.1,137.19,349.93z"/>
		<path class="st4" d="M140.43,413.03c0.21,7.68,0.33,15.04-0.06,16.02c-0.75,1.87-1.12,12.56-1.12,12.56s-0.75,2.44,1.5,2.44
			c2.25,0,8.62,0,8.62-0.56c0-0.56-4.5-10.68-4.5-13.31c0-1.36,2.61-8.48,5.28-16.13C145.28,415.06,142.25,414.19,140.43,413.03z"/>
	</g>
</g>
</svg>
